<?xml version="1.0" encoding="utf-8"?>
<!-- Generator: Adobe Illustrator 22.1.0, SVG Export Plug-In . SVG Version: 6.00 Build 0)  -->
<svg version="1.1" id="Layer_1" xmlns="http://www.w3.org/2000/svg" xmlns:xlink="http://www.w3.org/1999/xlink" x="0px" y="0px"
	 viewBox="0 0 200 248.5" style="enable-background:new 0 0 200 248.5;" xml:space="preserve">
<style type="text/css">
	.st0{fill:#FFFFFF;}
	.st1{fill:#67373E;}
	.st2{fill:#383535;}
	.st3{fill:#5C595A;}
	.st4{fill:#FBB72E;}
	.st5{fill:#476C3B;}
	.st6{fill:#DA353A;}
	.st7{fill:#2C6DB4;}
	.st8{fill:#393635;}
	.st9{fill:#3A3534;}
	.st10{fill:#743C93;}
	.st11{fill:#393636;}
	.st12{fill:#F4B32E;}
	.st13{fill:#EBAF2D;}
	.st14{fill:#F7B52E;}
	.st15{fill:#FBB82E;}
	.st16{fill:#FCFCFC;}
</style>
<g id="Coat_x5F_of_x5F_Arms_x5F_of_x5F_Kragujevac_x5F_University.psd_3_">
	<g>
		<path class="st2" d="M0,152.8c0-0.8,0-1.5,0-2.3c0.5-0.8,0.2-1.8,0.2-2.7c0-48.6,0-97.2,0-145.8c0-1.8,0-1.8,1.8-1.8
			c65.4,0,130.9,0,196.3,0c0.5,0,1.1,0,1.6,0c0,0.5,0,0.9,0,1.4c0,47.8,0,95.6,0,143.4c0,5.3-0.2,10.7-0.9,15.9
			c-1.3,10.9-4.4,21.3-9.2,31.1c-9.2,18.7-22.8,33.2-40.8,43.5c-15.2,8.7-31.7,12.9-49.2,13c-8.2,0-16.3-1-24.2-3.1
			c-26.9-7.1-47.5-22.7-61.8-46.5c-8-13.3-12.4-27.8-13.4-43.4C0.4,154.7,0.5,153.7,0,152.8z M100.1,6.2c-30.8,0-61.7,0-92.5,0
			c-1,0-1.4,0.2-1.3,1.3c0,47.1,0,94.1,0,141.2c0,6.9,0.8,13.7,2.3,20.4c11.3,51,63.1,83.2,113.8,70.6c42-10.4,71.4-47.9,71.5-91.1
			c0.1-47,0-94,0-140.9c0-1.7,0.2-1.5-1.5-1.5C161.6,6.2,130.8,6.2,100.1,6.2z"/>
		<path class="st3" d="M200,0c0,0.1,0,0.2-0.1,0.2c-0.5,0-1.1,0-1.6,0c-65.4,0-130.9,0-196.3,0c-1.8,0-1.8,0-1.8,1.8
			c0,48.6,0,97.2,0,145.8c0,0.9,0.3,1.8-0.2,2.7C0,100.7,0,50.9,0,1.1C0,0.2,0.2,0,1.1,0C67.4,0,133.7,0,200,0z"/>
		<path class="st4" d="M100.1,6.2c30.8,0,61.5,0,92.3,0c1.7,0,1.5-0.2,1.5,1.5c0,47,0,94,0,140.9c-0.1,43.2-29.5,80.7-71.5,91.1
			C71.6,252.3,19.8,220.1,8.5,169.1c-1.5-6.7-2.3-13.5-2.3-20.4c0-47.1,0-94.1,0-141.2c0-1.1,0.3-1.3,1.3-1.3
			C38.4,6.2,69.2,6.2,100.1,6.2z M30.2,133.3c0.8,0,1.6,0,2.4,0c1.1,1,2.3,0.2,3.4,0c5.3,0,10.6,0,16,0.1c0.8,0,0.8-0.4,0.8-0.9
			c0-2.2,0-4.4,0-6.7c0-0.8,0.2-1,1-1c3.3,0,6.5,0,9.8,0c0.9,0,1.1-0.3,1.1-1.1c0.2-4.9,0.4-9.9,0.6-14.8c1.3-0.4,1.2-1.6,1.3-2.6
			c0.1-1,0-2,0.7-2.9c0.6-0.9,0.7-2,0.6-3.1c0-0.5-0.2-0.9-0.8-0.8c-0.4,0-0.8,0-1.2,0l0,0c0.1-0.2-0.1-0.2-0.2-0.3
			c0.2-3.7,0.3-7.5,0.5-11.2c0-0.9-0.2-1.2-1.1-1.1c-0.6,0-1.1,0.1-1.3-0.7c-0.7-2-1.4-4-2.2-5.9c-0.2-0.6,0-0.9,0.5-1.1
			c0.5,0.2,1.1,0,1.4,0.6c0.6,1.1,1.4,0.9,2.2,0.3c1.3-1.1,2.8-2,3.3-3.8c9.8-4.2,19.7-8.4,29.5-12.6c0.8-0.3,0.7-0.8,0.7-1.4
			c0-17.2,0-34.4,0-51.5c0-1.1-0.2-1.4-1.4-1.4c-29,0-58,0-87,0c-1.1,0-1.5,0.2-1.5,1.4c0,40.4,0,80.8,0,121.3c0,0.2,0,0.5,0,0.7
			c-0.1,0.5,0.1,0.8,0.7,0.8c5.7,0,11.3,0,17-0.1C28,133.3,29.1,133.3,30.2,133.3z M138.1,79.1c0.4,0.2,0.6,0.4,0.8,0.8
			c-0.6,1.7-1.4,3.4-1.9,5.2c-0.4,1.4-1.1,2.1-2.6,1.9c-1.1-0.1-1.2,0.5-1.2,1.4c0.2,2.5,0.3,5.1,0.4,7.6c0.3,7,0.5,14.1,0.8,21.1
			c0.1,2.2,0.2,4.4,0.3,6.7c0,0.8,0.4,1.1,1.2,1.1c3.4,0,6.8,0,10.1-0.1c1.2,0,1.5,0.4,1.4,1.5c-0.1,1.9,0,3.8,0,5.8
			c0,1,0.3,1.4,1.3,1.4c13.6,0,27.2,0,40.7,0c1,0,1.3-0.3,1.3-1.3c0-40.5,0-81,0-121.5c0-1-0.2-1.3-1.3-1.3c-29.1,0-58.1,0-87.2,0
			c-1,0-1.3,0.2-1.3,1.3c0,17.2,0,34.4,0,51.7c0,0.8,0.2,1.2,1,1.6C114.1,68.8,126.1,73.9,138.1,79.1z M100,137.5
			c-29.6,0-59.3,0-88.9,0c-0.3,0-0.6,0-0.9,0c-0.7-0.1-0.9,0.2-0.9,0.9c0,1.9,0,3.8,0,5.8c-0.1,7.3,0.3,14.6,1.7,21.7
			c3.4,17.2,11,32.3,23.2,44.9c20.7,21.3,45.9,30.7,75.5,28c12.6-1.2,24.3-5.1,35.3-11.4c16.9-9.8,29.5-23.6,37.7-41.3
			c4.3-9.3,6.8-19.1,7.8-29.3c0.5-5.9,0.3-11.9,0.4-17.8c0-1.5,0-1.5-1.5-1.5C159.5,137.5,129.8,137.5,100,137.5z M74,105.8
			C74,105.8,74,105.8,74,105.8c0.3,6.4,0.5,12.8,0.8,19.2c0,0.6,0,1.1,0.9,1.1c2.8-0.1,5.6,0,8.4,0c0.6,0,0.9-0.2,0.9-0.9
			c0-1.1,0.1-2.3,0.1-3.4c0.5-11.7,1-23.4,1.6-35c0-0.8-0.2-1.1-1.1-1.1c-3.8,0-7.5,0-11.3,0c-0.9,0-1.1,0.3-1.1,1.1
			C73.5,93.1,73.7,99.5,74,105.8z M125.2,105.9C125.2,105.9,125.2,105.9,125.2,105.9c0.3-6.4,0.5-12.7,0.8-19.1
			c0-0.9-0.1-1.2-1.1-1.2c-3.7,0.1-7.4,0.1-11,0c-1,0-1.1,0.4-1.1,1.2c0.2,3.5,0.3,7,0.5,10.6c0.4,9.3,0.9,18.5,1.3,27.8
			c0,0.7,0.2,0.9,0.9,0.9c2.7,0,5.4,0,8,0c0.7,0,0.9-0.2,0.9-0.9C124.7,118.8,125,112.3,125.2,105.9z M105.2,105.8
			c0.3-6.3,0.6-12.6,0.9-18.9c0-0.9-0.2-1.2-1.1-1.2c-3.5,0.1-7,0.1-10.5,0c-1,0-1.4,0.2-1.3,1.3c0.3,4.4,0.5,8.7,0.7,13.1
			c0.4,8.3,0.8,16.7,1.2,25c0,0.8,0.2,1.1,1.1,1c2.3-0.1,4.6-0.1,6.9,0c1.1,0,1.4-0.4,1.4-1.4C104.7,118.4,105,112.1,105.2,105.8z
			 M77.4,79.6c0,0.1,0,0.1,0.1,0.2c15,0,30.1,0,45.4,0c-0.4-0.2-0.5-0.3-0.7-0.4c-7.1-3.1-14.3-6.1-21.4-9.2
			c-0.6-0.3-1.1-0.1-1.6,0.1c-4.7,2-9.4,4-14,6C82.5,77.4,80,78.5,77.4,79.6z"/>
		<path class="st5" d="M100,137.5c29.8,0,59.5,0,89.3,0c1.5,0,1.5,0,1.5,1.5c-0.1,5.9,0.2,11.9-0.4,17.8c-0.9,10.2-3.5,20-7.8,29.3
			c-8.2,17.7-20.8,31.5-37.7,41.3c-10.9,6.3-22.7,10.3-35.3,11.4c-29.6,2.7-54.9-6.6-75.5-28c-12.2-12.6-19.8-27.7-23.2-44.9
			c-1.4-7.2-1.8-14.4-1.7-21.7c0-1.9,0-3.8,0-5.8c0-0.7,0.2-1,0.9-0.9c0.3,0,0.6,0,0.9,0C40.7,137.5,70.4,137.5,100,137.5z
			 M139.1,195.2c8.5,0,16.9,0,25.4,0c1.7,0,2.3-1.2,1.4-2.7c-0.2-0.4-0.5-0.7-0.9-1.1c-0.6-0.6-1.2-1.3-1.9-1.9
			c-1-1-1.5-2.1-1.4-3.6c0.1-5.6,0-11.2,0-16.8c0-0.6,0-1.2-0.6-1.6c-5.7-4.1-11.4-8.1-17-12.3c-1.2-0.9-2.3-1-3.6-0.8
			c-4.6,0.7-9.3,0.9-13.9-0.4c-5.2-1.5-10.5-2.8-16-2.4c-4.1,0.3-7.7,1.4-10.3,4.8c-0.3,0.5-0.5,0.4-0.8,0c-1-1.2-2.1-2.3-3.6-3
			c-3.1-1.6-6.5-1.8-9.9-1.8c-4.2,0.1-8.1,1.1-12,2.2c-2.7,0.7-5.4,1.4-8.1,1.2c-2.6-0.2-5.3-0.2-7.9-0.8c-0.5-0.1-0.9,0-1.3,0.3
			c-5.9,4.3-11.8,8.5-17.7,12.8c-0.8,0.6-1.1,1.2-1.1,2.2c0,5.8,0,11.6,0,17.4c0,0.7-0.1,1.3-0.7,1.9c-1.1,1.1-2.1,2.3-3.1,3.5
			c-0.6,0.7-0.5,1.6-0.3,2.4c0.2,0.7,1,0.4,1.5,0.4c16.7,0,33.4,0,50.2,0c1,0,1.9,0.1,2.8,0.4c6.5,1.7,13,2.2,19.5,0.7
			c4-0.9,7.9-1.1,12-1.1C126.3,195.2,132.7,195.2,139.1,195.2z"/>
		<path class="st6" d="M138.1,79.1c-12-5.1-24-10.3-36.1-15.4c-0.8-0.3-1-0.7-1-1.6c0-17.2,0-34.4,0-51.7c0-1,0.3-1.3,1.3-1.3
			c29.1,0,58.1,0,87.2,0c1.1,0,1.3,0.3,1.3,1.3c0,40.5,0,81,0,121.5c0,1-0.3,1.3-1.3,1.3c-13.6,0-27.2,0-40.7,0
			c-1.1,0-1.4-0.3-1.3-1.4c0.1-1.9,0-3.8,0-5.8c0-1.1-0.2-1.5-1.4-1.5c-3.4,0.1-6.7,0-10.1,0.1c-0.8,0-1.2-0.2-1.2-1.1
			c-0.1-2.2-0.2-4.4-0.3-6.7c-0.3-7-0.5-14.1-0.8-21.1c-0.1-2.5-0.2-5.1-0.4-7.6c-0.1-0.9,0.1-1.5,1.2-1.4c1.5,0.2,2.2-0.5,2.6-1.9
			c0.5-1.8,1.3-3.5,1.9-5.2c0.2,0.3,0.1,0.6,0.1,0.9c-0.4,3.6,0.6,6.8,2.3,9.9c1.2,2.3,2.8,4.1,5.4,4.8c5.3,1.4,10.6,1.9,16,1.1
			c1.8-0.3,3.6-0.6,5.4-0.6c1.9,0,3.9,1.5,4.2,3.2c0.4,2.2-2.1,6.2-4.3,6.8c-2,0.5-4.1,1.1-6,1.8c-4,1.4-6.8,4.1-8.9,7.6
			c-2.3,3.7-1.7,7.6,1.3,10.7c2.5,2.5,5.6,3.8,9,4.6c1.8,0.4,3.3-0.1,4.8-1.1c0.6-0.4,1-1,0.7-1.8c-0.2-0.8-0.8-1.3-1.5-1.3
			c-0.6-0.1-1.2-0.1-1.7,0c-1.4,0.4-2.7,0.1-4-0.1c-1.6-0.3-3.3-0.8-3.8-2.5c-0.3-0.9-0.6-1-1.3-1l0,0c0-0.3,0-0.7-0.1-1
			c-1.1-2.6,0.1-4.7,1.8-6.4c2.7-2.8,6-4.5,9.9-4.9c2.4-0.2,4.3-1.2,6-2.9c1.7-1.8,2.6-3.9,3.1-6.3c0.2-1,0.6-2,0.3-2.9
			c-1.1-4.1-3.5-7.2-8.1-7.9c-3.4-0.6-6.9-0.1-10.3,0.1c-2.4,0.2-4.8,0.6-7.1-0.5c-1.1-0.5-1.9-1.3-3.1-1.7
			c-0.5-0.2-0.7-0.8-0.9-1.3c-0.2-0.6-0.1-0.8,0.6-0.6c1,0.3,2,0.6,3,0.8c4.1,0.6,8.2,0.2,12.3,0c5.4-0.3,13.8-6.7,14.4-13.3
			c0-0.4,0.2-0.8,0.2-1.2c0.4-3.9,0.4-7.7-2.1-11c-3.3-4.5-7.9-6.5-13.5-5.8c-5.8,0.7-10.7,3.4-15,7.2c-1.2,1.1-2.4,2.1-3.1,3.6
			c-0.2,0.2-0.3,0.4-0.5,0.7c-0.5,0.4-0.7,1.2-1.4,1.5c-0.5-1.6-0.7-3.1-0.4-4.6c0.6-3.3,2.9-5.4,5.6-7.1c4.2-2.6,8.8-4,13.6-5.2
			c2.5-0.6,4.7-1.7,6.8-3c6.1-4,9.4-13.9,4.4-21c-1-1.4-2-2.7-3.8-3.1c-0.2,0-0.3-0.2-0.5-0.3c-0.9-0.9-1.9-1.5-3.2-1.8
			c-3.8-0.8-7.6-0.4-11.3,0.4c-2.7,0.5-5.4,1.1-7.9,2.2l0,0c-0.3,0-0.5,0-0.7,0.2l0,0c-0.2,0-0.4,0-0.5,0.2l0,0
			c-0.9,0-1.5,0.3-2,1.1c-0.5,1-1.4,1.5-2.5,1.7c-1,0.2-2,0.5-2.7,1.3c-0.5,0.3-0.9,0.6-1.4,0.9c-0.8,0-1.4,0.5-1.9,1.1
			c-0.3,0.2-0.3,0.5-0.1,0.8c0.1,0.1,0.1,0.2,0.2,0.3c1.6,0.9,3.3,1.8,5,3.1c-0.1-1-0.1-1.8,1-1.5c0.8,0.2,2.1-0.2,2.2,0.5
			c0.1,0.7-1,1.3-1.7,1.8c-0.1,0-0.1,0.1-0.2,0.1c-1,0.4-0.6,0.8,0,1.1c0.1,0,0.1,0.1,0.1,0.1c0.1,0.1,0.2,0.2,0.4,0.2l0,0
			c1,1.3,2.1,1.4,3.5,0.4c1.2-0.9,2.2-1.8,3.6-2.5c2.2-1,4-2.6,4.6-5.1c0.1-0.3,0.2-0.6,0.5-0.8c1.7-1.2,3.4-2.3,5.5-2.8
			c2.9-0.7,6.3,0.6,7.8,3c1.5,2.3,2.5,7.8-0.2,11.1c-0.4,0.5-0.8,0.9-1.2,1.4c-0.1,0.1-0.3,0.2-0.4,0.3c-0.2,0.1-0.5,0.1-0.5,0.5
			c-0.2-0.1-0.4,0-0.5,0.2c-1.1,0.4-2.2,0.9-3.4,1c-4,0.6-7.9,1.8-11.8,2.7c-4.8,1.1-8.9,3.3-11.5,7.6c-0.3,0.5-0.7,0.9-0.6,1.5l0,0
			c-0.2,0-0.2,0.2-0.2,0.3c-0.3,0.7-0.7,1.5-1,2.2c-0.9,1.6-1.5,3.3-1.6,5.1c-0.2,4.9,0.7,9.6,3.6,13.7
			C137.9,78.5,138.2,78.7,138.1,79.1z"/>
		<path class="st7" d="M27,133.3c-5.7,0-11.3,0-17,0.1c-0.6,0-0.8-0.2-0.7-0.8c0-0.2,0-0.5,0-0.7c0-40.4,0-80.8,0-121.3
			c0-1.2,0.3-1.4,1.5-1.4c29,0,58,0,87,0c1.1,0,1.4,0.3,1.4,1.4c0,17.2,0,34.4,0,51.5c0,0.6,0,1.1-0.7,1.4
			c-9.8,4.2-19.7,8.4-29.5,12.6c0.3-1.1,0.6-2.1,0.9-3.2c0.1-0.3,0.2-0.6,0.1-0.9c-0.7-2-2-3.2-4.1-3.2c-1.8,0-3.3-1.1-5-1.3
			c-0.1,0-0.3-0.1-0.4-0.3c-1.1-1.5-2.2-3-3.3-4.5c-1-1.3-0.4-2.5,0.3-3.4c1.5-1.9,2.3-4.1,2.9-6.4c0.1-0.2,0.1-0.3,0.2-0.5
			c0.4-0.6,0.1-1.4,0.6-1.9c1.5-1.5,1.9-3.5,2.6-5.4c0.5-1.5,1.2-2.9,2.6-3.9c1.6-1.1,1.5-5.5-0.2-6.3c-0.8-0.4-1.5-0.8-2-1.5
			c-0.3-0.5-1.4-0.1-1.3-1c0.1-0.6,0.5-1.2,0.8-1.8c0.2-0.5,0.5-0.9,0.7-1.4c0.2-0.5,0.4-1.1,0.4-1.7c0-0.4-0.1-0.7-0.6-0.6
			c-0.9,0.3-1.9,0.7-2.2,1.8l0,0c-0.4-0.2-0.7,0.2-1.1,0.3c-0.3,0.1-0.8,0.3-1,0c-0.5-0.7-1.4-1-2-1.7c-2.4-3.3-5.7-5.7-9.1-7.8
			c-0.9-0.6-2-1.2-3-1.6c-1.7-0.6-3.4-1.3-5.2-1.7c-3.2-0.9-6.4-1-9.6-0.4c-0.3,0.1-0.6,0.1-0.7,0.5l0,0c-0.2-0.1-0.4,0-0.4,0.2
			c0,0.3,0.3,0.3,0.5,0.3l0,0c0.7,0.6,1.7,0.7,2.5,0.9c2.9,0.9,5.8,1.6,8.6,2.8c5.4,2.3,10.2,5.3,13.9,9.8c0.5,0.7,1.6,0.9,1.6,1.9
			c0,0.9-0.9,1.6-1.2,2.4C56,34.8,56,34.9,55.9,35c-0.1,0.1-0.2,0.3-0.3,0.4c-0.6,1.3,0.1,3,1.6,3.3c0.9,0.2,1.1,0.6,0.9,1.4
			c-0.2,0.9-0.8,1.6-0.8,2.5l0,0c-0.2,0-0.2,0.1-0.2,0.2l0,0c-0.2,0.1-0.3,0.2-0.3,0.5l0,0c-0.1,0.1-0.2,0.2-0.4,0.2
			c-0.2,0.4-0.5,0.8-0.7,1.1c-0.3,0.1-0.4,0.2-0.4,0.5l0,0c-0.2,0-0.2,0.1-0.2,0.3l0,0c-0.2,0-0.2,0.1-0.2,0.2l0,0
			c-0.2,0-0.2,0.1-0.2,0.2l0,0c-0.2,0.1-0.3,0.2-0.2,0.5l0,0c-0.5-0.1-0.6,0.3-0.9,0.6c-0.6,0.7-1.2,1.5-1.8,2.2
			c-0.2,0.3-0.5,0.6-0.9,0.5c-1.1-0.1-2.2-0.1-3.3-0.2c-0.9-0.1-1.5-0.5-1.5-1.5c0-0.6-0.3-0.8-0.9-0.7c-0.3,0-0.6,0-0.9,0
			c-2.3-0.2-2.6-0.8-1.2-2.6c0.9-1.1,1.2-2.2,1.1-3.6c-0.1-0.9-0.7-1.4-1.5-0.9c-0.4,0.2-0.6,0.9-1.1,0.7c-0.5-0.2-0.2-0.9-0.3-1.4
			c-0.1-0.3-0.1-0.7-0.1-1c-0.1-0.8,0.4-1.2,1.1-1.3c1.8-0.3,2.5-1.3,2.2-3.1c-0.2-1.5-0.8-2.9-1.6-4.3c-0.5-0.8-1-1-1.8-0.6
			c-0.9,0.5-1.9,0.3-2.8,0.1c-1-0.2-2.1-0.5-3.1-0.7c-0.6-0.1-1-0.4-1.3-0.9C33.4,26.8,33,26,32,25.7c-1.3-0.4-1.6-1.3-1.6-2.5
			c0-0.7-0.2-1.3-1-1.5c-0.4-0.1-0.7-0.4-0.7-0.9c0-0.6-0.1-1.2-0.9-1.3c-0.8-0.1-1,0.5-1.2,1c-0.6,0.6-0.8,1.5-1.1,2.2
			c-0.8,2.5-1.8,4.8-5,5c0.1,0.3,0.2,0.4,0.2,0.5c0.4,0.5,1.4,0.4,1.3,1.2c0,0.6-0.3,1.3-0.5,1.9c-0.1,0.4-0.2,0.7-0.3,1.1
			c-0.1,0.2-0.3,0.3-0.4,0.5c-0.1,0.1-0.3,0.3-0.4,0.4c-1.8,1.4-1.7,3.4-1.4,5.4c0.1,0.3,0.1,0.5,0.5,0.5c0.8,0,0.8,0.6,0.7,1.1
			c-0.1,1.7-0.6,3.4-1.3,5c-0.2,0.5-0.4,1-0.5,1.5c-0.1,0.5,0.2,1,0.7,0.9c0.8-0.1,1.5,0.2,2.3,0.1c0.9-0.2,0.9,0.3,0.8,0.9
			c-0.1,1.4-0.3,2.8-0.3,4.2c0,0.3-0.3,0.8,0.4,0.8c0.3,0,0.7-0.3,0.9,0.2c0.2,0.4-0.3,0.7-0.5,0.9c-0.4,0.5-0.4,0.9,0.2,1
			c0.8,0.1,1.7,1.9,2.5,0c0-0.1,0.2-0.1,0.3-0.1c1.1-0.4,2.3,0.7,2.1,2c-0.1,0.9-0.6,1.8-1,2.6c-0.4,0.8-0.5,1.3,0.7,1.3
			c0.6,0,1.2,0.3,1.5,0.9c0.1,0.3,0.1,0.8,0.6,0.7c0.5,0,1.1-0.1,1.3-0.7c0.1-0.3,0.3-0.7,0.5-0.9c0.4-0.4,0.8-0.5,1.2,0
			c2.7,3.6,2.8,8,0.4,11.5c-1,1.4-1.7,2.9-2.2,4.5c-0.2,0.7-0.6,1-1.3,1.1c-0.5,0.1-1,0.2-1.4,0.7c-1.4,2.2-3.7,3.1-5.9,4.1
			c-0.5,0.2-1.1,0.3-1.7,0.3c-1,0-1.5-0.4-1.8-1.4c-0.8-3.3,0.4-5.9,2.9-8c1.2-1,2.3-2,3.5-3c2.9-2.4,2.7-7.3-0.6-9.6
			c-0.9-0.6-1.8-1.1-2.8-1.4c-1.5-0.5-4,0.4-5,1.8l0,0c-1.4,0.3-2.1,1.4-3.1,2.2c-0.5,0.5-0.5,0.8,0.1,1.3c0.6,0.5,1.1,1.1,1.8,1.6
			c0.4,0.3,0.3,1.5,1.3,0.8c0.4-0.3,1.3,0.3,1.5-0.7c0-0.1,0.3-0.3,0.4-0.3c1.1-0.3,1.6-1.3,2.4-2c0.6-0.5,1.2-0.9,1.9-1.2
			c0.9-0.4,1.8,0.5,1.6,1.5c-0.2,0.7-0.6,1.3-0.9,2c-0.1,0.1-0.1,0.2-0.2,0.2c-0.1,0.1-0.2,0.2-0.2,0.2c-0.1,0.1-0.1,0.1-0.2,0.2
			c-0.1,0.1-0.2,0.2-0.2,0.2c-0.1,0.1-0.2,0.2-0.2,0.2c-0.1,0.1-0.2,0.2-0.2,0.2c-0.1,0.1-0.1,0.1-0.2,0.2c-2.5,1.5-4.6,3.5-5.7,6.3
			c-0.1,0.1-0.2,0.3-0.3,0.4c-0.6,0.9-1.3,1.7-1.2,2.9c0.1,2.1,0.4,4.1,1.1,6.1c0.9,2.3,2.2,4.2,4.6,5.2c1.1,0.4,1.4,1,1.2,2.1
			c-0.5,2.6-0.8,5.2-0.9,7.9c0,1.2-1,2.7-1.8,2.9c-1.1,0.2-1.6,0.9-1.4,2c0.1,0.6,0.1,1.2,0.3,1.8c0.4,1.3,0.1,2.6-0.5,3.8
			c-0.5,0.9-0.9,1.9-1.3,2.8c-0.2,0.5-0.3,1.1,0.2,1.6c0.8,0.6,1.4,1.5,2.2,2.1c0.8,0.6,1.7,1.1,2.2,2.1c0.1,0.1,0.1,0.2,0.2,0.3
			c0.1,0.1,0.2,0.3,0.3,0.4c0.1,0.1,0.1,0.2,0.2,0.3c0.7,1.9,1.6,3.6,2,5.6c0,0.2,0.1,0.4,0.4,0.5c1,0.1,1.3,0.8,1.7,1.5
			c0.6,1.4,1.2,2.8,0.6,4.4C26.2,132.4,26.2,133,27,133.3z"/>
		<path class="st8" d="M56.1,34.7c0.3-0.9,1.2-1.5,1.2-2.4c0-1-1.1-1.3-1.6-1.9c-3.8-4.5-8.6-7.5-13.9-9.8c-2.8-1.2-5.7-1.9-8.6-2.8
			c-0.9-0.3-1.8-0.3-2.5-0.9c1.7,0,3.4-0.4,5,0c0.3,0.1,0.9,0.1,1-0.4c0-0.6-0.6-0.3-0.9-0.4c-1.8-0.3-3.5,0.1-5.2,0.3
			c0.1-0.4,0.4-0.4,0.7-0.5c3.2-0.6,6.4-0.5,9.6,0.4c1.8,0.5,3.5,1.1,5.2,1.7c1,0.4,2,1,3,1.6c3.4,2.2,6.6,4.5,9.1,7.8
			c0.5,0.7,1.4,1,2,1.7c0.2,0.3,0.6,0.1,1,0c0.3-0.1,0.6-0.5,1.1-0.3c-1.3,1.4-2.8,2.5-4,4.1c-0.2,0.2-0.5,0.4-0.3,0.8
			c0.1,0.1,0.4,0.2,0.6,0.2c0.4,0.1,0.6-0.1,0.6-0.5c0.1-0.7,0.6-0.7,1.1-0.7c0.3,0,0.5,0.2,0.7-0.1c1-1.3,2-2.7,3.1-4
			c-0.9-0.5-1.3,0.2-1.9,0.3c0.3-1.1,1.3-1.4,2.2-1.8c0.5-0.2,0.6,0.2,0.6,0.6c0,0.6-0.2,1.1-0.4,1.7c-0.2,0.5-0.5,0.9-0.7,1.4
			c-0.3,0.6-0.7,1.2-0.8,1.8c-0.1,0.9,0.9,0.5,1.3,1c0.5,0.7,1.2,1.1,2,1.5c1.7,0.9,1.7,5.2,0.2,6.3c-1.3,1-2,2.4-2.6,3.9
			c-0.7,1.9-1.1,3.9-2.6,5.4c-0.5,0.5-0.3,1.3-0.6,1.9l-0.1-0.1c0-0.1,0-0.3,0-0.3c-1.5-0.5-2.8,0.5-2.6,2.1
			c0.3-0.2,0.5-0.4,0.7-0.5c0.1,0.1,0.1,0.1,0.2,0.2c0.1,0.1-0.3,0.9,0.3,0.4c0.5-0.4,0.8-0.9,1.2-1.4c0,0,0.1,0.1,0.1,0.1
			c-0.6,2.3-1.5,4.5-2.9,6.4c-0.7,0.9-1.3,2.1-0.3,3.4c1.2,1.5,2.2,3,3.3,4.5c0.1,0.1,0.2,0.2,0.4,0.3c1.7,0.2,3.2,1.3,5,1.3
			c2.1,0,3.4,1.2,4.1,3.2c0.1,0.3,0,0.6-0.1,0.9c-0.3,1.1-0.6,2.1-0.9,3.2c-0.5,1.8-2,2.7-3.3,3.8c-0.7,0.6-1.6,0.8-2.2-0.3
			c-0.3-0.5-0.9-0.4-1.4-0.6c-0.4-1-0.4-2.1-1.2-2.9c-0.5-0.5-1.1-0.3-1.5-0.6c-1.2-0.9-2.8-1.2-3.9-2.3c-0.2-0.2-0.7-0.6-0.9,0.1
			c-0.5,2.1-1.7,3.8-2.7,5.6c-0.3,0.6-0.7,1.3-0.7,2.1c0.6-0.1,1.2-0.3,1.8-0.3c0.5,0,1.1-0.1,1.1,0.7c-0.4-0.1-0.8-0.4-1.3-0.2
			c0,0.4,0.5,0.4,0.6,0.7c0.1,0.4-0.2,1.2,0.5,1.1c0.4-0.1,0.1-0.9,0.1-1.3c0-0.1,0-0.2,0-0.3c0.9,2.2,1.7,4.4,1.4,6.9
			c-0.1,1.3,0,2.6,0,3.9c0.1,4.2,1.2,7.9,4.9,10.4c0.6,0.4,0.7,0.4,0.9-0.3c0.1-0.5,0.1-1,0.5-1.4c0,0.2,0,0.5,0,0.7
			c0,0.2,0,0.5,0.3,0.5c0.2,0,0.4-0.2,0.4-0.4c0-0.5,0.2-1-0.6-1.1c0.8-1.4,2.2-1.5,3.6-1.5c0.1,0.1,0.3,0.1,0.2,0.3
			c-0.6,0.3-0.3,0.8-0.4,1.2c-0.1,0.6,0.3,0.7,0.8,0.8c0.6,0,0.7-0.5,0.9-0.9c0.2-0.5-0.3-0.5-0.5-0.7c-0.3-0.1-0.6-0.1-0.8-0.4
			c0.4,0,0.8,0.1,1.2,0c0.6,0,0.8,0.3,0.8,0.8c0,1.1,0,2.2-0.6,3.1c-0.7,0.9-0.6,1.9-0.7,2.9c-0.1,1,0,2.1-1.3,2.6
			c-0.8,0-1.4,0.4-2,0.7c-0.7,0.3-1.3,0.8-2.1,1c-1,0.2-2,0.6-2.9-0.3c0.6,0.1,1.3,0,1.9,0.2c0.5,0.1,0.9-0.3,1.2-0.6
			c0.2-0.1,0.1-0.4,0-0.5c-0.8-0.7-1.6-1.4-2.6-2.3c0.1,1.3-0.8,2.1-0.4,3.2c-0.9-1.2-1.5-2.6-2.1-3.9c0.4,0,0.6,0.4,0.9,0.7
			c0.2,0.1,0.3,0.5,0.6,0.4c0.3-0.1,0.2-0.5,0.2-0.7c-0.1-1.2,0.4-2.6-1.4-3c-0.1,0-0.3-0.5-0.7-0.4c-0.5,0.1-0.5,0.5-0.5,0.9
			c0,0.4,0,0.7,0,1.1c-1.1-0.9-1.6,0.2-2.2,0.8c-0.2-1.9-0.2-1.9-1.4-3c-0.8-0.7-1.7-1.5-2.5-2.2c-0.3-0.3-0.6-0.6-0.4-1.1
			c0.5-1.9,0.2-3.9,0.1-5.8c-0.1-1.3-0.7-1.8-2-1.8c-0.6,0-1.1,0-1.7-0.2c-1.6-0.4-3,0.3-4,1.7c-2.8,3.8-6.1,6.9-10.5,8.9
			c-2.7,1.2-4.5,3.3-5.1,6.3c-0.3,1.6-0.5,3.2-0.5,4.8c0,0.7,0.2,1.2,0.6,1.8c1.1,1.5,2,3,2.3,4.9c0.2,1.3,0.7,2.6,1.6,3.6
			c1.4,1.6,3.1,2.5,5.4,2.2c0.6-0.1,1.4-0.3,1.6,0.5c0.5,1.5,1,3,0.4,4.6c-0.1-0.7,0.4-1.5-0.5-2c-0.2,0.9-0.5,1.8-0.3,2.8
			c0.4-0.3,0.6-0.5,0.8-0.8c0.2,0.9-0.4,1.5-0.9,2.1c-1.1,0.2-2.3,1-3.4,0c-1.1-1.3-1.1-1.3-2.3-0.1c0,0,0,0.1-0.1,0.1
			c-1.1,0-2.1,0-3.2,0c-0.7-0.3-0.8-0.9-0.5-1.5c0.6-1.6,0-3-0.6-4.4c-0.3-0.7-0.7-1.5-1.7-1.5c-0.3,0-0.4-0.2-0.4-0.5
			c-0.4-2-1.3-3.7-2-5.6c0.1,0,0.1-0.1,0.2-0.1c1,0.3,0.6,1.5,1.3,2.2c0-0.9,0.2-1.7,0.5-2.4c0.1-0.3,0.1-0.6-0.2-0.8
			c-0.9-0.5-1.3-1.4-1.6-2.3c-0.1-0.2-0.1-0.5-0.4-0.5c-0.3,0-0.4,0.3-0.5,0.5c-0.2,0.8,0,1.6,0.3,2.3c-0.1,0.1-0.1,0.1-0.2,0.2
			c-0.5-1-1.4-1.5-2.2-2.1c-0.9-0.6-1.4-1.5-2.2-2.1c-0.6-0.4-0.5-1-0.2-1.6c0.4-1,0.8-1.9,1.3-2.8c0.6-1.2,0.9-2.4,0.5-3.8
			c-0.2-0.6-0.2-1.2-0.3-1.8c-0.1-1.1,0.3-1.7,1.4-2c0.9-0.2,1.8-1.7,1.8-2.9c0.1-2.7,0.4-5.3,0.9-7.9c0.2-1.1-0.1-1.7-1.2-2.1
			c-2.4-0.9-3.7-2.9-4.6-5.2c-0.7-2-1-4-1.1-6.1c-0.1-1.2,0.7-2,1.2-2.9c0.1,0,0.1,0.1,0.2,0.1c0.1,0.5,0.2,1,0.7,1.6
			c0.2-0.6,0.3-1,0.4-1.4c0.2-0.9-0.2-0.8-0.8-0.5c-0.1-0.1-0.1-0.1-0.2-0.2c1.1-2.8,3.2-4.8,5.7-6.3c0.1,0.1,0.1,0.2,0.2,0.2
			c-0.4,0.6-0.8,1.2-1.1,1.9c-0.2,0.4-0.5,0.8,0.1,1.2c0.6,0.3,0.8-0.2,1-0.5c0.5-0.8,0.8-2,1.6-2.4c1-0.6,0.9-1.3,1-2.2
			c-0.4,0.2-0.7,0.3-1,0.5c-0.1-0.1-0.1-0.1-0.2-0.2c0.3-0.6,0.8-1.2,0.9-2c0.2-1-0.7-1.9-1.6-1.5c-0.7,0.3-1.3,0.7-1.9,1.2
			c-0.8,0.7-1.3,1.7-2.4,2c-0.2,0.1-0.4,0.2-0.4,0.3c-0.2,1-1,0.4-1.5,0.7c-1.1,0.7-0.9-0.5-1.3-0.8c-0.6-0.5-1.1-1.2-1.8-1.6
			c-0.6-0.4-0.6-0.8-0.1-1.3c0.9-0.9,1.7-2,3.1-2.2c0,1.1-0.4,2.1-0.6,3.2c0,0.2-0.1,0.5,0.1,0.6c0.3,0.2,0.5-0.1,0.6-0.3
			c0.4-0.7,0.6-1.5,0.8-2.2c0.3-1,0-1.4-1-1.3c1-1.4,3.5-2.3,5-1.8c1,0.3,1.9,0.8,2.8,1.4c3.3,2.2,3.4,7.2,0.6,9.6
			c-1.2,1-2.3,2-3.5,3c-2.6,2.1-3.7,4.7-2.9,8c0.2,1,0.8,1.4,1.8,1.4c0.6,0,1.2-0.1,1.7-0.3c2.2-1,4.5-1.9,5.9-4.1
			c0.3-0.5,0.8-0.7,1.4-0.7c0.7-0.1,1-0.4,1.3-1.1c0.5-1.6,1.2-3.1,2.2-4.5c2.4-3.5,2.3-7.9-0.4-11.5c-0.4-0.6-0.9-0.4-1.2,0
			c-0.2,0.2-0.3,0.6-0.5,0.9c-0.3,0.6-0.8,0.6-1.3,0.7c-0.6,0-0.5-0.4-0.6-0.7c-0.3-0.6-0.9-0.9-1.5-0.9c-1.2,0-1-0.5-0.7-1.3
			c0.4-0.8,0.8-1.7,1-2.6c0.2-1.2-1-2.3-2.1-2c-0.1,0-0.3,0-0.3,0.1c-0.8,1.9-1.7,0.2-2.5,0c-0.6-0.1-0.6-0.5-0.2-1
			c0.2-0.3,0.7-0.5,0.5-0.9c-0.2-0.4-0.6-0.2-0.9-0.2c-0.7,0-0.4-0.5-0.4-0.8c0.1-1.4,0.2-2.8,0.3-4.2c0-0.6,0.1-1-0.8-0.9
			c-0.7,0.1-1.5-0.2-2.3-0.1c-0.6,0.1-0.8-0.4-0.7-0.9c0.1-0.5,0.3-1,0.5-1.5c0.7-1.6,1.2-3.2,1.3-5c0-0.5,0.1-1.1-0.7-1.1
			c-0.3,0-0.4-0.2-0.5-0.5c-0.4-2-0.4-3.9,1.4-5.4c0.1-0.1,0.3-0.3,0.4-0.4c0.1,0.1,0.1,0.1,0.2,0.2c-0.3,0.9-1.6,1.5-1.2,2.8
			c0.5-1.1,1.3-1.8,2.6-1.8c0.2,0,0.4-0.3,0.6-0.5c0.4-0.4,0.8-0.9,1.2-1.3c0,0,0.1,0.1,0.1,0.1c-0.2,0.7-0.7,1.3,0.2,1.9
			c0.1,0.1,0.5,1.1,0,1.3c-1.1,0.4-1.3,0.9-1,2c0.2,0.8-0.5,1.6-0.4,2.6c0.1,0.6,0.5,1.2,0.4,1.5c-0.4,1.2,0.5,2,0.7,3.1
			c0.1,0.3,0.3,0.7,0.7,0.4c0.4-0.2,0.5-0.4,0.3-0.8c-0.1-0.2-0.2-0.5-0.2-0.8c-0.4-1.3-0.2-2.6-0.1-3.9c0.2,0.4,0.3,0.8,0.3,1.2
			c0.2,1,0.4,2,1.2,2.7c0.9,0.9,1.8,1.9,3,2.7c0.2,0.1,0.4,0.5,0.7,0.2c0.2-0.3,0.3-0.7,0-0.9C29.6,45,30,43.9,29,43.8
			c-0.2,0-0.1-0.4,0.1-0.6c0.6-0.4,0.2-0.6-0.1-0.9c-0.3-0.2-1-0.6-0.9-0.7c1-1,0.2-1.4-0.6-1.8c0,0,0-0.2-0.1-0.2
			c-1-2-0.2-4.1-0.2-6.2c0.7,1.9,1.4,3.8,2.2,5.7c0.2,0.5,0.7,0.9,0.9,1.4c0.2,0.3,0.5,0.3,0.7,0.1c0.2-0.2,0.2-0.5-0.2-0.6
			c-0.3-0.1-0.4-0.3-0.5-0.5c-0.5-2.1-1.2-4.1-1.1-6.3c0-0.8,0-1.6,0.7-2.2c0.3,0.4,0.2,1.1,0.8,1.1c0.7,0,0.8-0.5,1.1-0.9
			c0.5-0.5,0.4-1.4,1.2-1.6c0.3-0.1,0.7-0.3,0.5-0.6c-0.1-0.4-0.5-0.1-0.7-0.1c-0.2,0-0.4,0-0.4-0.2c-0.3-1.1-1.1-1.2-2.1-0.7
			c0-0.6,0-1.1,0-1.7c-1,0.3-0.9,1.1-1.1,1.8c-0.1,0.2,0,0.6-0.4,0.6c-0.4,0-0.5-0.4-0.5-0.7c0-1.2,0.1-2.4,0.1-3.7
			c0-0.5,0.4-1.2-0.2-1.5c-0.8-0.4-0.6,0.6-1,1c-0.2,0.2-0.3,0.4-0.6,0.3c-0.2-0.1-0.1-0.4,0-0.6c0.2-0.6,0.6-1.1,0.8-1.7
			c0.2-0.6,0.3-1.3-0.8-1.2l-0.1-0.1c0.3-0.5,0.5-1.1,1.2-1c0.7,0.1,0.9,0.7,0.9,1.3c0,0.5,0.3,0.7,0.7,0.9c0.7,0.2,1,0.8,1,1.5
			c0,1.2,0.3,2.1,1.6,2.5c0.9,0.3,1.4,1.1,1.8,1.8c0.3,0.5,0.7,0.8,1.3,0.9c1.1,0.2,2.1,0.4,3.1,0.7c0.9,0.2,1.9,0.4,2.8-0.1
			c0.8-0.4,1.3-0.1,1.8,0.6c0.8,1.3,1.4,2.7,1.6,4.3c0.3,1.8-0.4,2.8-2.2,3.1c-0.7,0.1-1.2,0.5-1.1,1.3c0,0.3,0,0.7,0.1,1
			c0.1,0.5-0.1,1.1,0.3,1.4c0.5,0.3,0.7-0.4,1.1-0.7c0.8-0.5,1.4-0.1,1.5,0.9c0.1,1.4-0.2,2.5-1.1,3.6c-1.4,1.8-1.1,2.4,1.2,2.6
			c0.3,0,0.6,0.1,0.9,0c0.6,0,0.9,0.1,0.9,0.7c0,1,0.6,1.4,1.5,1.5c1.1,0.1,2.2,0.1,3.3,0.2c0.4,0,0.7-0.2,0.9-0.5
			c0.6-0.7,1.2-1.5,1.8-2.2c0.2-0.3,0.4-0.7,0.9-0.6c-0.4,0.7-0.8,1.5-1.1,2.2c-0.6,1.4-0.9,2.8-0.5,4.2c0.1,0.3,0.1,0.8,0.6,0.6
			c0.4-0.2,0.7-1.1,0.4-1.5c0-0.1-0.1-0.2,0-0.3c0.5-0.7,1-1.4,1.5-2.1c0.3,0.5-0.3,0.8,0.3,1.3c0.3-0.4,0.6-0.9,1-1.3
			c0.7-0.7,0-0.8-0.3-1.1c-0.1-0.1-0.1-0.5,0.2-0.6c1.8-1.2,2.2-3.1,2.9-5c0.4-1,0.1-2.2,0.8-3.2c0.6-0.9,1.3-1.9,0.9-3.2
			c-0.1-0.4,0.1-0.8,0.5-1c0.6-0.4,1-0.9,1.3-1.7c-2,0.3-4.7,3.4-4.2,4.9c0.6,1.9-0.5,2.9-1.5,4c0-0.9,0.6-1.6,0.8-2.5
			c0.2-0.8,0.1-1.3-0.9-1.4c-1.5-0.3-2.3-2-1.6-3.3c0,0,0.1,0.1,0.1,0.1c0,0.4-0.2,0.9,0.2,1.1c0.4,0.2,0.7-0.2,0.9-0.5
			c0.4-0.4,0.7-0.7,1.1-1.1c0.1-0.2,0.3-0.4,0.2-0.6c-0.1-0.1-0.4-0.1-0.6-0.1c-0.5,0.1-0.8,0.5-1.4,0.5
			C56.2,34.8,56.1,34.7,56.1,34.7z M52,24.2c0.3,0.1-0.2,1,0.6,0.7c0.4-0.2,0.9-0.2,1.2-0.6c0,0,0-0.2-0.1-0.3
			c-0.5-0.2-0.9-0.1-1.3,0.1C52.3,24.2,52.1,24.2,52,24.2c-0.1-0.4,0.6-0.8,0.2-1.5c-0.6,1-1.3,1.4-2.3,0.5C50.5,24,51,24.7,52,24.2
			z M27.5,126c-0.1-0.1-0.1-0.1-0.2-0.2c-0.3-0.7-0.7-1.5-1-2.2c-0.1-0.3-0.3-0.5-0.7-0.3c-0.4,0.2-0.3,0.5-0.2,0.8
			c0.3,0.8,0.8,1.6,1,2.4c0.2,0.7,0.6,0.7,1.1,0.5c1.1-0.4,2.2-1.3,3.4,0C30.4,125.5,29.1,125.3,27.5,126z M31.2,85.7
			c-0.1-0.1-0.1-0.1-0.2-0.2c0.5-0.5,1-0.9,1.7-1.1c0.2,0.3-0.4,0.7,0.2,1c0.3,0.1,0.5-0.1,0.6-0.3c0.3-0.5,0-0.6-0.3-0.8
			c0-0.6,0.7-1,0.8-1.6c0.2-1.4,1.2-1.9,2.4-2.5c0,1.2,0.8,0.6,1.3,0.6c0.2,0.4-0.4,0.8,0.1,1.3c0.8-1.1,1-2.3,1-3.6
			c0-1.5-0.9-2.9-0.4-4.4c0-0.1,0-0.3-0.1-0.3c-1-0.4-0.2-0.8-0.1-1.3c0.3-1.2,1.2-0.5,1.9-0.6c0.1,1.7,0.1,1.6,1.1,2.2
			c0.7,0.4,1.1,0.2,1.4-0.5c0.1-0.3,0.2-0.7,0.3-1c0.4,0,0.1,0.6,0.5,0.4c0.3-0.1,0.5-0.3,0.3-0.7C43.4,71.9,43,71.1,43,71
			c0.2-1.6-0.7-0.6-1.1-0.5c-0.4,0.2-0.5,0.8-1.1,0.8c0.4-0.5-0.8-0.5-0.3-1c0.8-0.7,0.9-1.8,1.5-2.6c0.8-1-0.2-3.1-1.5-3.4
			c-0.7-0.2-1.4-0.3-2.1-0.1c0.6-2.4,1-2.8,3.3-2.6c2,0.1,2.5-0.2,3.3-2.1c0.1-0.2,0.1-0.4,0.2-0.5c0.2-0.3,0.6-0.6,0.4-1
			c-0.3-0.4-0.7,0.3-1,0c-0.2-1.7,2-0.7,2.1-2.1c0,0,0.1,0,0.2,0c0.6,0.1,1.9-0.1,2.1-0.4c0.3-0.4,0.6-0.9,0.7-1.4
			c0.1-0.5-0.5-0.4-0.8-0.7c-0.1-0.1-0.3-0.3-0.3-0.4c-0.1-0.6-0.5-0.5-0.9-0.4c-1.2,0.2-2.4,1.1-3.6,0.2c-0.1-0.1-0.4,0-0.4,0.1
			c-0.4,0.6-1.4,1-0.9,2c0.1,0.3,0.3,0.8-0.2,0.9c-0.7,0.1-1.3,1-2.2,0.5c-0.2-0.1-0.6,0.1-0.6,0.4c-0.2,1-1.2,1.5-1.4,2.5
			c0.4-0.7-0.9-1.5,0.2-2.1c-1-0.2-1.8-0.5-2.7-0.7c-0.7-0.1-1.2,0.5-1,0.9c0.3,0.6,0,1.4,0.9,1.8c0.8,0.3,1.4,1.1,1.8,1.8
			c0.3,0.4-0.6,1.3-1,1.9c-0.6,1.1-1.1,2.2-0.8,3.5c0,0.2,0.1,0.5,0.2,0.6c0.6,0.6,0.7,1.2,0.1,1.6c-1.2,0.7-0.8,1.5-0.4,2.3
			c0.3,0.5,0.3,0.9-0.3,1.1c-0.8,0.2-0.8,0.8-0.7,1.4c0.1,1.3-0.3,2.6-1.6,3.2c-0.9,0.4-1.4,1-1.6,1.9c-0.1,0.4-0.3,0.9-0.7,0.8
			c-1.4-0.2-1.8,0.9-2.3,1.8c-0.5,0.9-0.9,1.8-1.8,2.4c-0.5,0.3-0.5,1,0.2,1.2c0.9,0.4,0.6,0.8,0.2,1.3c-0.9,0.9-1.5,2-1.8,3.2
			c-0.2,0.6-0.3,1.1-0.9,1.5c-0.5,0.4-0.5,1.2-0.4,1.8c0,0.3,0.3,0.6,0.5,0.7c0.3,0.2,0.6-0.2,0.7-0.4c0.4-0.5,0.8-1,1.2-1.6
			c0.6,0.6,0.2,1.1-0.1,1.6c-1.5,2.4-2.2,5-3.4,7.5c-0.6,1.2-1,2.5-1.8,3.5c-0.7,0.9-1,2-1,3.1c0,0.3-0.1,0.8,0.3,0.9
			c0.4,0.1,0.8-0.2,0.9-0.6c0.2-1.2,1.1-1.9,1.8-2.8c1-1.3,2.6-2.2,2.5-4c0-0.1,0-0.2,0.1-0.2c1.4-0.5,1.4-1,0.4-2.3
			c-0.8-1.1,0.8-3.9,2.2-4.5c-0.3,1-0.7,2-1.3,2.9c-0.5,0.9,0,2.1,1.1,2.4c0.6,0.2,0.7-0.6,1-1c0.2-0.2,0.3-0.5,0.5-0.8
			c0.1-0.2,0.2-0.4-0.1-0.5c-1.5-0.4-0.5-1.2-0.3-1.8c0.4-1.3,0.4-1.4-0.9-1.3c0-0.4,0.7-0.7,0.3-1c-0.8-0.5-0.2-0.9-0.1-1.3
			c0.2-0.5,0.4-1,0.6-1.5c0.1-0.2,0.3-0.6,0-0.7c-1.1-0.6-0.1-0.7,0.2-0.9c0.9-0.6,1.8-1.3,2.4-2.2c0.1-0.1,0.3-0.3,0.1-0.5
			C31.5,85.6,31.3,85.7,31.2,85.7z M50.7,93c0.5-1.1,0.4-2,0.5-2.9c0.2-0.9,1.2-1.4,1.2-2.4c0.1-1.3,0.1-2.5-0.2-3.8
			c-0.3-1.1-1-1.5-2.1-1.4c-1.2,0.1-1.9,0.8-2.4,1.7c-0.3,0.4-0.2,1-0.5,1.5c-0.6,1,0.2,2.2,1.3,2.3c0.6,0,0.7,0.2,0.5,0.8
			c-0.2,0.5-0.2,1,0.4,1.1c0.7,0.1,0.8,0.5,0.9,1.1C50.5,91.6,50.6,92.2,50.7,93z M67.9,70.8c-0.4-0.2-0.8-0.2-1.1-0.5
			c-0.8-0.7-3.5-0.2-3.6,0.6c-0.1,1-0.5,1.5-1.1,2.2c-0.9,0.9,0,2.2,1.4,2.2c0.4,0,0.8,0,1,0.5c0.1,0.2,0.3,0.4,0.5,0.4
			c0.3-0.1,0.3-0.4,0.3-0.7c0.1-0.9,0.4-1.6,1.4-1.8c0,0.4,0.1,0.6,0.1,0.9c0.1,0.4,0.2,0.8,0.7,0.8c0.6,0,0.6-0.5,0.6-0.9
			c-0.1-0.8,0.1-1.7-0.3-2.4C67.6,71.5,67.7,71.2,67.9,70.8z M29.4,48.5c-0.4,0.1-1.3-0.1-1.4,0.6c-0.2,0.7,0.5,1.1,1.1,1.5
			c0,0,0.1,0,0.1,0.1c1.2,0.3,2,0.9,2,2.2c0,0.2,0.2,0.3,0.4,0.4c0.9,0.3,1.7,0.8,2.7,1c0.3,0.1,0.7,0.1,0.8-0.2
			c0.2-0.4-0.1-0.5-0.4-0.7c-0.2-0.1-0.4-0.3-0.3-0.5c0.4-1.2-0.5-1.2-1.2-1.3c-0.5,0-0.5-0.2-0.8-0.6
			C31.8,49.7,31.3,48.3,29.4,48.5z M39.2,37.1c0.1-1.7,1.1-3.7-1.1-5.1c1.3,0.5,1-0.7,1.4-1.1c0.2-0.3,0.5-0.7,0.2-1
			c-0.2-0.3-0.7-0.1-1.1,0c-0.2,0-0.4,0.1-0.5,0.2c-1.4,0.7-2,3.6-1.1,4.8c0.1,0.2,0.3,0.3,0.5,0.2c1-0.7,0.9,0.1,1,0.7
			C38.5,36.2,38.6,36.8,39.2,37.1z M34.1,50.2c0,0.4-0.1,0.7,0.2,0.8c0.6,0.2,0.9,0.6,1,1.2c0,0.3,0.3,0.3,0.5,0.3
			c1.1,0.3,2.1,0.6,3.2,0.9c0.3,0.1,0.5,0.2,0.6-0.2c0.1-0.5-1.3-2.5-1.8-2.3c-1.5,0.4-1.5-0.7-1.6-1.5c-0.1-0.8-0.8-0.9-1.3-1.1
			c-0.5-0.2-0.7,0.5-0.8,0.9C34.2,49.6,34.1,50,34.1,50.2z M43.8,84.2c1.4-0.6,2.5-1.6,3.2-2.8c0.7-1.3,2.4-2,2.4-3.7
			c0-0.2,0.3-1.2,1-1c1.2,0.2,1.1-0.6,1.2-1.3c0-0.3,0.2-0.7-0.3-0.8c-0.3-0.1-0.7-0.1-0.9,0.3c-0.1,0.2-0.2,0.3-0.3,0.5
			c-1.6,2.6-3.4,5-5.6,7C43.9,82.8,43.7,83.4,43.8,84.2z M50.5,93.8c-0.5,1.3-0.6,2.6-0.4,4c0.1,0.5,0.3,1.1,0.1,1.6
			c-0.6,1.2,0.2,1.7,1,2.2C52.5,98.8,52.1,96.2,50.5,93.8z M24.6,84.4c-1.7,0.1-3.3,0.8-4.9,1.3c-0.2,0.1-0.4,0.2-0.4,0.5
			c0,0.2,0.2,0.3,0.4,0.3c1-0.2,2.1,0.5,3.1-0.1c0.3-0.2,0.7-0.1,1,0.2c0.2,0.2,0.8,0,0.7-0.2c-0.4-0.7,0.2-0.7,0.4-1
			c0.2-0.3,0.6-0.5,0.5-0.8C25.3,84.3,24.9,84.5,24.6,84.4z M22.4,61.7c0-0.4-0.2-0.4-0.4-0.6c-0.7-0.4-1.4-0.4-2.2-0.1
			C19,61.4,19.1,62,19,62.6c-0.1,0.5-0.5,1,0.2,1.3c0.6,0.3,1,0,1.4-0.4c0.5-0.5,1-0.9,1.4-1.3C22.2,62,22.3,61.9,22.4,61.7z
			 M20,111.1c0-0.4,0-0.7,0-0.9c-0.1-0.3,0.2-0.8-0.4-0.8c-0.4,0-0.9,0-1.1,0.5c-0.4,1.1-0.8,2.1-0.8,3.3c0,0.6,0.2,0.8,0.7,0.4
			C19.3,112.9,20.5,112.3,20,111.1z M35,130.6c0-0.5,0-1-0.3-1.4c-0.2-0.3-0.6-0.5-1-0.4c-0.5,0.1-0.3,0.6-0.3,0.9
			c0,0.7,0.2,1.5-0.2,2.2c-0.1,0.3-0.2,0.8,0.3,0.9c0.5,0.1,0.9,0.1,1.1-0.5C34.8,131.8,35,131.2,35,130.6z M42.8,89.7
			c1.2-0.2,1-2.4,2.7-1.7c0,0,0.1-0.1,0.1-0.2c0.4-0.8,1-1.5,1.3-2.4C44.4,86.3,42.6,88.1,42.8,89.7z M40.1,50.2
			c0.1,0.5,0.3,1.3,1,1.5c0.8,0.2,0.7-0.8,1-1.2c0.5-0.6,0.1-0.9-0.5-1.1c-0.4-0.1-0.5-0.3-0.2-0.6c0.4-0.3,0.2-0.6,0-0.9
			c-0.1-0.2-0.4-0.3-0.6-0.3c-0.4,0.1-0.2,0.5-0.3,0.7C40.3,48.8,40.2,49.4,40.1,50.2z M57.8,73.2c1,1.3,2.7,1.5,3.4,0.4
			c0.4-0.5,0.3-1.1-0.3-1.1c-0.8,0.1-1.4-0.1-2-0.6c-0.2-0.2-0.6-0.3-1-0.1c0.1,0.7,0.8,0.8,1.1,1.3C58.6,73.4,58.2,73,57.8,73.2z
			 M17.2,83.5c0.1-0.7,0.2-1.2-0.2-1.8c-0.6-1.1-1.1-2.2-0.4-3.4c0.2-0.4,0-0.5-0.3-0.7c-0.4-0.2-0.5,0.1-0.6,0.4
			C15.5,80,15.4,81.9,17.2,83.5z M21.9,109.2c-1.6,0.8-1.9,2-1.3,4.5c1.1-0.6,1.3-1.3,0.7-2.3c-0.2-0.2,0-0.4,0-0.6
			C21.5,110.3,21.7,109.9,21.9,109.2z M30.9,129.9c-0.3,1.1,0.2,1.6,1,1.7c0.8,0.1,0.7-0.6,0.7-1c-0.1-0.8,0-1.8-1.1-1.9
			C30.3,128.6,31.1,129.6,30.9,129.9z M28.1,60.5c1.2-0.5,1.5-1.2,1.5-2.7c0-0.7-0.6-1.5-1.6-2C28.8,57.3,28.7,58.8,28.1,60.5z
			 M51.1,21.6c-0.7-0.4-1.2,0.3-1.9,0.3c0.1-0.2,0.2-0.4,0.3-0.5c0.1-0.3,0.5-0.6,0.1-0.9c-0.4-0.2-0.4,0.3-0.6,0.5
			c-0.2,0.2-0.3,0.8-0.8,0.6c-0.2-0.1-0.4-0.3-0.5,0c-0.1,0.2,0,0.4,0.2,0.6C48.9,23.1,50.3,22.9,51.1,21.6z M20.8,72
			c0-0.3-0.2-0.4-0.6-0.3c-1,0.3-1.7,1-2,2c-0.2,0.5,0.1,0.6,0.5,0.6C19.2,74.3,20.8,72.7,20.8,72z M25.6,46.3
			c-0.1,0.9,0.1,1.7,0.3,2.6c0.1,0.6,0.4,0.8,1,0.5c0.3-0.2,0.7-0.3,0.7-0.8c0.1-0.5-0.3-0.4-0.5-0.5c-0.3-0.1-0.3-0.4-0.4-0.7
			C26.5,46.9,26.3,46.4,25.6,46.3z M55.3,68.5c-0.1-0.5-0.1-1.1-0.2-1.7c0-0.3,0-0.7-0.5-0.6c-0.4,0.1-0.7,0.2-0.7,0.6
			c-0.1,0.7,0.1,1.4,0.5,1.9c0.2,0.2,0.3,0.6,0.7,0.4C55.4,69.2,55.2,68.9,55.3,68.5z M37.1,90.9c-1.3,0.4-1.9,1.3-2.1,2.4
			c0,0.3-0.1,0.6,0.2,0.7c0.2,0.1,0.4-0.1,0.6-0.3C36.4,92.9,36.8,92,37.1,90.9z M40.2,42.5c0.2,0.3,0,1,0.5,1
			c0.4,0,0.9-0.5,1.1-0.9c0.1-0.3-0.4-0.6-0.8-0.7c-0.3-0.1-0.6-0.2-0.9-0.2c-0.3,0-0.7-0.2-0.9,0.2c-0.1,0.2-0.1,0.5,0,0.8
			C39.6,43.1,39.9,42.3,40.2,42.5z M24.1,51.1c-1.3-0.5-1.4-0.4-1.5,1.1c0,0.3-0.3,0.9,0.2,0.9c0.4,0.1,0.8-0.3,0.8-0.8
			C23.6,51.8,24,51.5,24.1,51.1z M31.6,33.3c-0.4,0-0.7-0.1-0.7,0.5c0,0.6,0.1,1.2,0.7,1.2c0.5,0.1,1.1-0.2,1.1-0.8
			C32.7,33.6,32.1,33.4,31.6,33.3z M62.2,42.1c-1.6,0.3-2,0.8-2,2.6C61.2,44.1,61.7,43.1,62.2,42.1z M23.1,49.5
			c1-0.6,0.8-1.4,0.8-2.3c0-0.2-0.2-0.3-0.4-0.4c-0.3,0-0.3,0.2-0.4,0.4C23,47.9,22.8,48.6,23.1,49.5z M52.4,92.6
			c-0.5,0.8-0.5,1.6-0.3,2.4c0,0.2,0.1,0.5,0.4,0.5c0.3,0,0.4-0.3,0.4-0.5C53.1,94.1,52.8,93.3,52.4,92.6z M63.1,38
			c0.9-0.5,1.4-1.2,1.8-2c0.1-0.2,0.3-0.5,0-0.7c-0.3-0.1-0.6-0.1-0.8,0.3C63.7,36.3,63.3,37,63.1,38z M22.8,40.1
			c-0.6-0.1-1,0.1-1.4,0.3c-0.6,0.3-0.6,1-0.3,1.4c0.3,0.4,0.7-0.1,1-0.4C22.4,41.1,22.7,40.7,22.8,40.1z M42.9,19.3
			c0.7-0.1,1.2-0.4,1.9-0.8C42.9,17.5,42.9,17.5,42.9,19.3z M46.7,21.4c0.6-0.1,1.2-0.3,1.4-1c0.1-0.4-0.4-0.5-0.6-0.4
			c-0.6,0.1-0.9,0.7-1.4,1.1C45.9,21.2,46.4,21.4,46.7,21.4z M21,39.7c0.8-0.2,1.2-0.6,1.6-1.1c0.2-0.2,0.3-0.5,0.1-0.7
			c-0.2-0.2-0.5,0-0.7,0.1C21.4,38.3,21.1,38.9,21,39.7z M33.8,32.9c0.6-0.1,1-0.3,1.3-0.7c0.2-0.3,0.4-0.8,0-1
			c-0.4-0.2-0.7,0.1-0.9,0.5C34.1,32,33.8,32.4,33.8,32.9z M37.3,47.2c0,0.2-0.1,0.7,0.2,0.6c0.5,0,0.7-0.5,0.9-0.9
			c0.1-0.4-0.1-0.6-0.5-0.6C37.3,46.3,37.5,46.9,37.3,47.2z M41.7,29.3c-0.9,0.8-1,1.5-0.3,2.2C41.5,30.9,41.6,30.2,41.7,29.3z
			 M64.4,40.5c-0.6,0.6-0.9,1.1-0.8,1.9C64.5,42,64.7,41.4,64.4,40.5z M42.3,35.5c-0.6-0.2-1-0.8-1.5-0.3c-0.2,0.2-0.2,0.7,0,0.8
			C41.3,36.4,41.7,36,42.3,35.5z M19.5,47.1c0.5-0.4,0.6-1,0.6-1.6c0-0.2-0.2-0.2-0.3-0.2c-0.6,0.4-0.3,1-0.4,1.5
			C19.3,46.9,19.4,46.9,19.5,47.1z M46.3,19c-0.8,0.2-1,0.7-1.2,1.3c0,0.2,0.2,0.2,0.3,0.2C46.1,20.3,46.2,19.7,46.3,19z
			 M25.8,121.2c0-0.3-0.1-0.6-0.4-0.5c-0.4,0.1-0.4,0.5-0.5,0.8c-0.1,0.4,0.2,0.3,0.4,0.3C25.6,121.8,25.8,121.7,25.8,121.2z
			 M61.5,103.5c-0.4,0.1-0.6,0.4-0.6,0.7c-0.1,0.3,0.3,0.3,0.5,0.3c0.4,0.1,0.6-0.1,0.6-0.5C61.9,103.8,61.9,103.5,61.5,103.5z
			 M55.8,27.9c-0.2,0-0.4,0.3-0.3,0.6c0,0.3,0.1,0.6,0.5,0.5c0.4-0.1,0.2-0.6,0.3-0.9C56.4,27.9,56.2,27.8,55.8,27.9z M63.7,39
			c-0.1-0.2-0.2-0.3-0.4-0.3c-0.4,0-0.7,0.2-0.7,0.6c0,0.3,0.2,0.3,0.4,0.3C63.3,39.6,63.6,39.4,63.7,39z M40.6,86.5
			c-0.1,0-0.2-0.1-0.3-0.1c-0.4,0.5-0.8,1-0.7,1.8C40,87.6,40.3,87.1,40.6,86.5z M54.2,103c0-0.2,0-0.5-0.3-0.5
			c-0.4,0.1-0.4,0.5-0.6,0.8c-0.1,0.2,0.1,0.3,0.3,0.3C54,103.6,54.2,103.3,54.2,103z"/>
		<path class="st9" d="M141.1,37.9c-0.7-0.4-1.1-0.7,0-1.1c0.1,0,0.1-0.1,0.2-0.1c0.7-0.5,1.9-1.1,1.7-1.8c-0.1-0.7-1.5-0.3-2.2-0.5
			c-1.1-0.3-1.1,0.5-1,1.5c-1.7-1.2-3.3-2.2-5-3.1c0.1-0.1,0.1-0.1,0.2-0.2c0.5,0.1,1,0.9,1.3-0.1c0,0,0.1-0.1,0.1-0.1
			c0.2,0.5,0.7,0.4,1.1,0.3c1.6-0.4,3.1-1.5,4.9-1.2c0.4,0.1,0.9-0.2,0.9-0.8c-1.7-0.7-3.3,0.2-5,0.3c0.9-1.1,3.2-1.8,4.6-1.4
			c0.5,0.2,1.2,0.2,1.4-0.1c0.5-0.8,1-1.6,1.5-2.4c0.3-0.4,0.3-1,0.9-1.2c0.3-0.1,0.5-0.4,0.5-0.8c-0.4-0.2-0.7,0-1.1,0
			c2.5-1.1,5.2-1.7,7.9-2.2c3.7-0.7,7.5-1.1,11.3-0.4c1.3,0.3,2.3,0.8,3.2,1.8c0.1,0.1,0.3,0.2,0.5,0.3c1.8,0.4,2.8,1.7,3.8,3.1
			c5,7.1,1.7,17.1-4.4,21c-2.1,1.4-4.3,2.4-6.8,3c-4.7,1.2-9.4,2.6-13.6,5.2c-2.7,1.7-4.9,3.8-5.6,7.1c-0.3,1.5-0.2,3,0.4,4.6
			c0.7-0.3,0.9-1,1.4-1.5c0.1,0.1,0.2,0.1,0.2,0.2c-0.2,0.6-0.5,1.3-0.7,1.9c-0.2,0.6,0,1.1,0.3,1.7c0.1,0.2,0.2,0.3,0.4,0.3
			c0.1,0,0.2-0.2,0.3-0.3c0.2-2,1.7-3.3,2.5-5c0.3-0.6,1.1-1.1,1.5-0.5c0.9,1.2,1.2,0.3,1.6-0.3c0.3-0.5,0.4-1.1,0.6-1.6
			c0.1-0.3,0.1-0.6,0.6-0.6c1.6-0.1,2.8-0.8,3.5-2.4c0.1-0.2,0.2-0.4,0.3-0.6c0.2-0.3,0.4-0.5,0.7-0.3c0.3,0.2,0.2,0.5,0,0.7
			c-0.4,0.5-0.1,1,0.2,1.7c0.4-0.8,0.7-1.3,1-1.9c0.2-0.5,0.3-0.9,1.1-0.9c0.9,0,0.1,0.9,0.9,1.1c0.3,0.2,0.6-1.5,1.2-0.2
			c0.2,0.5,0.3,1,1,0.8c0.6-0.2,1.3-0.2,1.3-1.1c0-0.9,0.6-1.6,1.3-2.1c0.3-0.2,0.7-0.2,0.7-0.7c-0.3-0.3-0.6-0.1-0.9-0.1
			c-1,0.1-1.3,0.9-1.9,1.5c-0.2,0.2-0.4,0.6-0.7,0.2c-0.2-0.2-0.7-0.4-0.4-0.9c0.1-0.2,0.2-0.5,0.3-0.8c-0.8-0.1-1.3,0.1-1.8,0.7
			c-0.3,0.3-0.6,1.3-1.1,0.1c-0.1-0.2-0.5-0.1-0.6,0c-1,0.7-2.1,1.3-3.4,1.5c-0.1,0-0.1,0.1-0.2,0.1c-0.6,1-1.6,1.3-2.6,1.8
			c-2.7,1.4-4.8,3.4-6.6,5.7c-0.1-0.1-0.1-0.1-0.2-0.2c0.7-1.5,1.9-2.6,3.1-3.6c4.3-3.8,9.2-6.5,15-7.2c5.6-0.6,10.2,1.3,13.5,5.8
			c2.4,3.3,2.5,7.1,2.1,11c0,0.4-0.2,0.8-0.2,1.2c-0.6,6.6-8.9,13-14.4,13.3c-4.1,0.2-8.2,0.6-12.3,0c-1-0.2-2-0.5-3-0.8
			c-0.6-0.2-0.8,0-0.6,0.6c0.2,0.5,0.4,1.1,0.9,1.3c1.1,0.4,2,1.3,3.1,1.7c2.3,1,4.7,0.6,7.1,0.5c3.4-0.2,6.9-0.7,10.3-0.1
			c4.6,0.8,7,3.8,8.1,7.9c0.3,1-0.1,2-0.3,2.9c-0.5,2.4-1.4,4.5-3.1,6.3c-1.6,1.7-3.6,2.7-6,2.9c-3.9,0.3-7.2,2.1-9.9,4.9
			c-1.7,1.8-2.9,3.8-1.8,6.4c0.1,0.3,0.1,0.7,0.1,1c-0.3-0.9-1.1-1.2-1.9-1.9c-0.4,2.6,2.1,3.1,3,4.6c0.2-1.2-0.7-1.9-1.1-2.7
			c0.7,0,1,0,1.3,1c0.5,1.7,2.2,2.2,3.8,2.5c1.3,0.2,2.6,0.5,4,0.1c0.5-0.1,1.1-0.1,1.7,0c0.8,0.1,1.3,0.6,1.5,1.3
			c0.2,0.8-0.1,1.3-0.7,1.8c-1.4,1-3,1.5-4.8,1.1c-3.4-0.8-6.5-2.1-9-4.6c-3.1-3.1-3.6-7-1.3-10.7c2.1-3.4,5-6.2,8.9-7.6
			c2-0.7,4-1.3,6-1.8c2.2-0.5,4.7-4.6,4.3-6.8c-0.3-1.6-2.3-3.1-4.2-3.2c-1.8,0-3.6,0.3-5.4,0.6c-5.4,0.9-10.8,0.3-16-1.1
			c-2.7-0.7-4.2-2.5-5.4-4.8c-1.6-3.1-2.6-6.4-2.3-9.9c0-0.3,0.1-0.6-0.1-0.9c-0.2-0.3-0.4-0.6-0.8-0.8c0.1-0.3-0.2-0.6-0.3-0.8
			c-2.8-4.1-3.8-8.8-3.6-13.7c0.1-1.8,0.7-3.5,1.6-5.1c0.5,0.4,0.5,0.9,0.1,1.4c-0.5,0.7-0.3,1.6,0.3,1.9c1,0.5,0.5,1,0.2,1.6
			c-0.7,1.7-0.9,3.4-0.3,5.2c0.3,0.8,0.7,0.5,1.2,0.3c0.7-0.2,0.6-0.5,0.1-0.8c-0.3-0.2-0.1-0.5,0-0.8c0.2-1.8,0.7-3.6,1.1-5.4
			c0.2-0.9,0.5-1.7,0.5-2.6c0-0.5,0.1-0.7,0.3-1c1.3-1.5,2-3.3,2.8-5.1c0.1-0.3-0.4-0.8,0.3-0.8c0.6,0,0.6,0.5,0.7,0.8
			c0.3,0.8,0.5,1.7,0.9,2.7c0.5-0.8,0.3-1.5,0.3-2.1c0-1.3,0.8-2.7,2-3.2c0.4-0.2,0.7-0.4,0.7-0.9c0-0.4,0.3-0.8,0.6-0.2
			c0.5,0.8,0.8,0.3,1.2-0.1c0.2-0.2,0.4-0.6,0.7-0.8c0.4-0.4,0.7-0.6,0.9,0.2c0.1,0.5,0.2,0.9,0.6,1.2c0.3-0.1,0.4-0.4,0.4-0.6
			c0-1.2,0.7-1.4,1.7-1.3c1,0.1,1.8-0.3,2.4-1.1c0.3-0.5,0.7-0.5,0.8,0.1c0,0.5,0.5,0.7,0.4,1.3c-0.1,0.9,0.7,0.5,0.9,0.3
			c0.3-0.3,0.8-0.8,0.4-1.4c-0.3-0.5,0-0.5,0.4-0.5c0.6,0.1,0.8,0.3,0.7,0.9c0,0.4,0,1,0.6,0.9c0.6-0.1,1-0.5,0.9-1.2
			c-0.1-0.6-0.6-0.9-0.8-1.4c-0.2-0.8-0.9-0.7-1.5-0.8c-0.6-0.1-0.8,0.4-0.9,1c-0.1,0.5-0.3,0.7-0.8,0.4c-0.7-0.5-1.5-0.5-2.3-0.4
			c-3.6,0.5-6.9,1.7-10.2,3.2c-2.9,1.3-4.8,3.1-6.2,5.8c-0.2,0.4-0.5,0.7-0.9,0.8c-0.1-0.6,0.3-1.1,0.6-1.5
			c2.7-4.3,6.7-6.5,11.5-7.6c3.9-0.9,7.8-2.2,11.8-2.7c1.2-0.2,2.3-0.7,3.4-1c0,0,0.1,0.1,0.1,0.1c-0.9,0.7-1.9,1.1-2.9,1.6
			c-0.2,0.1-0.5,0.3-0.5,0.6c0,0.4,0.4,0.2,0.6,0.3c0.7,0.1,1.1,0.6,1.5,1.1c0.2,0.3,0.4,0.8,0.9,0.6c0.4-0.1,0.3-0.6,0.3-0.9
			c-0.1-0.8,0.3-1.1,1-0.9c1,0.3,1.1-1.4,2.2-1c0-0.1,0-0.1,0-0.2c0-0.2-0.2-0.5,0.2-0.5c0.3,0,0.6,0.1,0.8,0.4
			c0.1,0.3,0,0.7,0.5,0.8c0-1,0-1-0.7-2.1c0.1-0.1,0.1-0.1,0.2-0.2c0.8-0.2,1.8-1.3,1.6-2.1c-0.3-1,0.3-0.8,0.8-0.8
			c0.3,0,0.5,0,0.8,0c0.3,0,0.6-0.1,0.6-0.5c0-0.4-0.1-0.7-0.6-0.6c-0.7,0.1-0.6-0.3-0.5-0.7c0.1-0.3,0.2-0.6,0.3-0.9
			c0.1-0.3,0.5-0.7,0.1-0.9c-0.4-0.2-1-0.1-1.4,0.3c-0.2,0.3-0.3,0.6-0.4,0.9c-0.9,2-2.1,3.7-3.9,5c0,0-0.1-0.1-0.1-0.1
			c0.4-0.5,0.8-0.9,1.2-1.4c2.7-3.2,1.7-8.7,0.2-11.1c-1.5-2.4-4.9-3.7-7.8-3c-2.1,0.5-3.8,1.6-5.5,2.8c-0.3,0.2-0.4,0.4-0.5,0.8
			c-0.6,2.5-2.3,4.1-4.6,5.1c-1.4,0.6-2.4,1.6-3.6,2.5c-1.4,1.1-2.5,0.9-3.5-0.4c0.4-0.4,1.9,1.1,1.4-0.8c-0.1-0.3,0.5-0.2,0.6-0.4
			c0.5-0.5,1.4,0.1,1.9-0.6c1-1.2,2-2.3,2.7-3.6c0-0.1,0.1-0.1,0.1-0.2c-0.1,0-0.2,0-0.3,0c-2.5,1.2-4.6,3-6.8,4.6
			C141,37.3,141.1,37.6,141.1,37.9z M143.5,77.2c0.6-0.5,1.2-1.1,1.8-1.6c0.3-0.2,0.6-0.5,0.2-0.9c-0.4-0.4-0.7,0.1-0.9,0.3
			c-0.5,0.6-1,1.2-1.3,2c0,0-0.1,0.1-0.1,0.1C143.3,77.4,143.4,77.3,143.5,77.2z M155.9,77.8c1.4,0.1,2.6-0.1,3.8-0.2
			c5.2-0.7,8.1-3.9,8.1-9c0-2.5-1.9-4.7-4-4.5c-4,0.4-7.6,1.8-10.7,4.4c-1.9,1.6-3.2,3.6-3.7,6.1c-0.1,0.4-0.3,0.9,0.3,1.2
			C151.6,77,153.5,78.2,155.9,77.8z M158.7,79.9c-0.4,1.4-0.8,2.5-0.1,3.7c0-1.2,1.6-1.3,1.5-2.6c0-0.4,0.2-0.7,0.6-0.7
			c0.5-0.1,0.5,0.4,0.5,0.7c0.1,0.8,0.1,1.7,0.2,2.5c0,0.3,0,0.7,0.5,0.7c0.4,0,0.6-0.2,0.7-0.6c0.1-0.5,0-1.1,0-1.6
			c-0.1-1-0.4-1.9-0.2-3c0.9,0.5,1,1.3,1.2,2c0.2,0.4-0.2,1.1,0.5,1.3c0.7,0.1,0.2-0.7,0.6-0.9c0.2-0.1,0.3-0.2,0.5-0.3
			c0.3-0.3,0.6-0.6,0.7-1c0.1-0.4-0.1-1,0.6-1c0.7,0,0.5,0.6,0.7,0.9c0.1,0.2,0.1,0.5,0.4,0.5c0.2,0,0.4-0.2,0.5-0.4
			c0.3-0.6,0.2-1.3,0.2-2c0-0.4-0.3-1,0.1-1.3c0.6-0.3,0.6,0.5,1,0.7c0.3,0.2,0.6,0.8,1,0.6c0.3-0.2,0.4-0.8,0.2-1.2
			c-0.3-0.9-0.2-1.9-1.3-2.4c0.3-0.1,0.4-0.1,0.5-0.1c0.8,0,1.2,0.7,1.7,1c0.3,0.2,0.6,0.4,0.8,0.2c0.3-0.2,0-0.5-0.1-0.8
			c-0.1-0.3-0.4-0.6-0.1-0.9c0.5-0.5,0.2-0.7-0.4-0.7c-0.2,0-0.5,0.1-0.5-0.2c0-0.2,0.1-0.4,0.3-0.5c0.3-0.2,0.6-0.4,0.9-0.5
			c1-0.3,0.9-1.2,1.1-1.9c0.1-0.3-0.2-0.4-0.5-0.3c-1.1,0.5-1-0.2-0.9-0.9c0-0.4,0.4-1.1-0.3-1.2c-0.6-0.2-0.9,0.2-1.1,0.8
			c0,0.1-0.1,0.3-0.2,0.3c-0.9,0.1-0.9,0.8-0.8,1.4c0.1,0.6,0.8,0.5,1.4,0.5c-1,1-2.3,1.2-2.9,2.5c0.4,0,0.8,0.1,1.1,0.1
			c0,0.1,0,0.2,0,0.2c-0.1,0.1-0.2,0.2-0.4,0.3c-1.3,0.8-2.7,1.4-3.1,3.2c-0.1,0.6-0.7,1.1-1.7,0.9c-2.2-0.4-4,0.9-6.1,1.4
			c-0.5,0.1-0.6,0.5-1-0.1c-0.2-0.5-0.8-0.4-0.9,0.1c-0.3,1-0.8,2-0.8,3.1c-0.1,0.9,0.2,1,1,0.9c0.5-0.1,0.7-0.4,0.8-0.8
			C157.3,81.4,157.7,80.6,158.7,79.9z M163,108.7c-3.6-0.1-10.6,6.2-10.3,9.3c1.9-1.2,3.5-2.9,5-4.8
			C159.1,111.3,161.3,110.3,163,108.7z M169.7,106.6c0.4,0.2,0,0.8,0.4,0.9c0.5,0.1,0.5-0.5,0.7-0.8c0.2-0.3,0.5-0.3,0.7-0.5
			c1.1-0.9,2.4-1.7,2.5-3.4c0-0.6,0.3-1.2,0.4-1.8c0.1-0.8,0.3-1.7,0.3-2.5c0-0.4-0.2-0.7-0.6-0.7c-0.5,0-0.3,0.4-0.4,0.7
			c-0.2,1.4-0.5,2.9-1,4.2c-0.7,1.7-1.8,2.9-3.7,3.3c-0.5,0.1-0.9,0.4-1.4,0.6c-0.2,0.1-0.6,0.4-0.4,0.7c0.2,0.2,0.5,0.5,0.9,0.3
			C168.7,107.2,169.2,106.9,169.7,106.6z M157.2,92.4c0.1,0.6-0.4,1.1-0.4,1.7c0,0.3-0.1,0.6,0.3,0.6c0.6-0.1,1.4,0,1.5-0.7
			c0.2-0.9,0.7-1.8,1.2-2.6c-1.4,0-2.7,0-4,0c-0.3,0-0.5,0.1-0.6,0.4c-0.3,0.7-0.7,1.4-0.9,2.1c-0.1,0.3-0.4,0.7,0,0.9
			c0.4,0.2,1,0.2,1.4-0.2c0.2-0.2,0.2-0.6,0.3-1C156,92.9,156.3,92.4,157.2,92.4z M154.8,78.7c-0.4,0.2-0.3,0.4-0.4,0.6
			c-0.1,0.3-0.1,0.8-0.6,0.7c-0.4-0.1-0.3-0.5-0.2-0.9c0.3-0.6-0.1-0.8-0.6-0.7c-0.4,0.1-0.9,0-1.1,0.2c-0.6,0.5-0.6,0.1-0.8-0.6
			c-0.5,0.9-0.9,1.6-1.2,2.4c-0.2,0.5-0.7,1.1-0.2,1.4c0.5,0.3,1-0.3,1.4-0.7c0.3-0.3,0.4-0.7,0.7-1.1c0.2-0.2,0.2-0.6,0.6-0.6
			c0.2,0.4,0.1,0.8,0,1.2c-0.2,1,0.3,1,1,1C154.5,81.6,155.1,80.2,154.8,78.7z M165.8,90.7c-1.2,0-2.1,0-3,0c-1.5,0-2.9,1.3-3.2,2.7
			c-0.1,0.3-0.1,0.6,0.1,0.7c0.3,0.2,0.5,0,0.7-0.1c0.5-0.3,0.9-0.7,1.4-1c0.2-0.1,0.6-0.4,0.7,0c0.2,1.1,0.6,0.3,0.8,0.1
			C164.1,92.3,164.9,91.6,165.8,90.7z M167.8,57.5c-1.4,0.2-2.5,1.1-3.4,2.1c-0.4,0.5-0.3,1.3,0.2,1.7c0.5,0.4,0.6-0.4,0.9-0.6
			c0.4-0.3,0.7-0.7,1.1-1C167.4,59.2,167.9,58.6,167.8,57.5z M141,85.8c0,0.5,0.9,2.2,1.3,2.3c0.6,0.2,0.8-0.4,1.2-0.7
			c0.4-0.3,0.8-0.5,0.5-1.1c-0.2-0.5-0.6-0.8-1.3-0.8c-0.3,0-0.6,0.1-0.8-0.3c-0.1-0.3-0.3-0.5-0.6-0.4
			C141.1,85.1,141.1,85.4,141,85.8z M141,75.5c0,0.4,0,0.8,0.3,1.1c0.2,0.1,0.3,0.1,0.5,0c0.6-0.4,1.5-2.6,1.3-3.3
			c-0.1-0.4-0.2-0.8-0.7-0.8c-0.4,0-0.6,0.2-0.8,0.5C141.4,73.8,141.1,74.6,141,75.5z M148.2,29.4c-0.5-0.2-1.1,0.2-1.3-0.4
			c-0.1-0.7,0.9-0.5,1.1-1.1c-0.4-0.1-1-0.9-1.1-0.4c-0.4,1.1-1.1,1.9-1.8,2.8c-0.2,0.3-0.1,0.4,0.3,0.6
			C146.5,31,147.6,30.5,148.2,29.4z M166.5,61.6c1.5-0.6,2.6-1.2,3.6-1.9c0.3-0.2,0.7-0.4,0.5-0.8c-0.2-0.3-0.6-0.6-1.1-0.4
			C168.1,59,167.1,59.9,166.5,61.6z M159.3,22.8c-1.3,0-2.3,0.4-3.2,1c-0.5,0.3-0.4,0.9-0.2,1.2c0.2,0.4,0.6,0.1,0.9-0.1
			c0.6-0.5,1.1-0.9,2-0.7c0.7,0.2,0.7-0.7,0.8-1.1C159.7,22.6,159.3,22.8,159.3,22.8z M147.6,76.9c0.1-0.2,0-0.3-0.1-0.4
			c-0.3-0.1-0.6-0.2-0.8,0.1c-0.6,0.7-1.3,1.4-2,2.1c-0.2,0.2-0.3,0.6-0.5,0.9c-0.1,0.2-0.1,0.4,0.1,0.5c0.2,0.1,0.4,0,0.5-0.2
			c0.5-0.8,1.3-1.2,2-1.8C147.2,77.8,147.4,77.3,147.6,76.9z M154.1,91.4c-0.1-0.3-0.6-0.3-0.8-0.1c-0.5,0.6-1.2,0.7-1.7,1.1
			c-0.4,0.3-0.6,0.7-0.7,1.2c-0.1,0.3,0,0.5,0.4,0.5C152,94,154.1,92.2,154.1,91.4z M168.7,63.4c0.1,0.1,0.1,0.2,0.2,0.3
			c1.2-0.7,2.4-1.5,3.6-2.2c0.3-0.2,0.8-0.3,0.5-0.8c-0.3-0.5-0.7-0.2-1,0C170.8,61.3,169.7,62.3,168.7,63.4z M170.6,29.2
			c-1.6,0.6-1.9,1.6-1.1,3.3C170.7,31.7,170.5,30.5,170.6,29.2z M170.7,36.2c0.4-0.3,1.6,0.2,1.7-1c0.1-0.8-0.6-0.7-1.2-0.7
			c-1-0.1-1.1,0.6-1.1,1.3C170.1,36.2,170.2,36.3,170.7,36.2z M172.7,31.9c-1.2,0.1-1.9,0.9-2.8,1.2c-0.2,0.1-0.5,0.2-0.4,0.4
			c0.1,0.4,0.4,0.3,0.7,0.3C171.3,33.8,172.2,33.3,172.7,31.9z M150.1,90.7c-1,0.6-1.7,1.2-2,2.2c-0.1,0.4-0.1,0.8,0.4,0.9
			c0.5,0.1,0.5-0.3,0.6-0.7c0.1-0.6,0.1-1.1,0.8-1.4C150.2,91.7,150.2,91.2,150.1,90.7z M147.8,79.9c0,0.2-0.1,0.5,0.1,0.6
			c0.2,0.1,0.4-0.1,0.6-0.3c0.4-0.5,0.8-1,1.2-1.5c0.3-0.4,0-0.5-0.3-0.6C148.5,78,147.9,78.7,147.8,79.9z M148,90.1
			c-1.2,0.3-1.9,0.7-2.3,1.7c-0.1,0.3-0.2,0.7,0.2,0.9c0.4,0.2,0.5-0.2,0.7-0.4C147.1,91.6,147.5,91,148,90.1z M139.2,77.9
			c0.2-0.2,0.1-0.3,0.1-0.5c-0.1-1.1-1-2.1-0.8-3.3c0-0.2-0.1-0.4-0.3-0.3c-0.3,0.1-0.4,0.3-0.3,0.5
			C137.9,75.7,138.3,76.9,139.2,77.9z M169.4,26c-0.8,0-1.1,0.1-1.4,0.8c-0.1,0.2-0.3,0.5-0.1,0.7c0.2,0.3,0.5,0,0.7-0.1
			c0.5-0.2,0.9-0.4,1.4-0.6c0.2-0.1,0.6-0.1,0.5-0.5c0-0.3-0.3-0.3-0.5-0.3C169.7,26,169.5,26,169.4,26z M166.3,93.2
			c0.8,0,1.5-0.4,1.5-0.9c0-0.5-0.4-0.7-0.8-0.6c-0.8,0-1.2,0.5-1.3,1.2C165.6,93.3,166,93.2,166.3,93.2z M168.6,29.2
			c0.9,0.1,1.4-0.3,2-0.6c0.2-0.1,0.4-0.3,0.3-0.5c-0.1-0.3-0.4-0.3-0.6-0.3C169.2,27.6,168.8,28.2,168.6,29.2z M143.8,90.6
			c0.7-0.3,0.9-0.8,1.1-1.4c0.1-0.4,0.1-0.7-0.4-0.8c-0.4-0.1-0.7,0.1-0.8,0.5C143.6,89.5,143.6,90,143.8,90.6z M166.5,127
			c-0.5,0.2-1.4-0.1-1.4,0.5c0,0.6,0.9,0.6,1.5,0.7c0.5,0.1,0.9-0.2,0.9-0.8C167.4,126.7,166.9,127.1,166.5,127z M171.2,65.6
			c1.3-0.4,2.3-0.7,3.3-1C173.3,64.4,172.2,64.4,171.2,65.6z M138.5,71.4c0-0.2,0-0.4-0.1-0.5c-0.2-0.1-0.4,0-0.5,0.2
			c-0.2,0.3-0.2,0.7-0.5,0.9c-0.3,0.3-0.8,0.5-0.4,0.8c0.4,0.4,0.7-0.1,1-0.4C138.4,72.1,138.4,71.7,138.5,71.4z M140.5,84.4
			c0.5,0,0.8-0.3,1.2-0.5c0.3-0.2,0.3-0.5,0.2-0.8c-0.1-0.3-0.4-0.6-0.7-0.5c-0.5,0-0.3,0.5-0.2,0.7
			C141.1,83.8,140.6,83.9,140.5,84.4z M162.4,22.7c-0.6,0-0.9,0.4-1,0.9c0,0.3,0.1,0.6,0.5,0.5c0.5-0.2,1-0.5,1.2-1
			C163.2,22.7,162.7,22.8,162.4,22.7z M171.9,64.1c0.8,0.3,1.4,0,1.9-0.2c0.2-0.1,0.5-0.2,0.4-0.5c-0.1-0.3-0.4-0.3-0.6-0.3
			C172.9,63.2,172.4,63.6,171.9,64.1z M165.9,107.1c-0.2,0.1-0.7-0.1-0.7,0.4c0,0.4,0.2,0.7,0.6,0.8c0.6,0.1,0.6-0.4,0.7-0.8
			C166.7,107,166.3,107.1,165.9,107.1z M168.5,93.3c0.5,0,0.8-0.2,0.8-0.8c0-0.2-0.1-0.4-0.3-0.4c-0.5,0.1-0.9,0.3-1,0.8
			C168,93.3,168.2,93.4,168.5,93.3z M163.9,108.9c0.5-0.2,0.9-0.6,0.9-1.2c0-0.3-0.2-0.2-0.4-0.2
			C163.6,107.8,163.9,108.4,163.9,108.9z M147.1,69.6c-0.7,0.2-1,0.6-0.9,1.3C146.9,70.7,147.1,70.3,147.1,69.6z M165,23.5
			c-0.6,0-1.2,0.1-1.5,0.7c0,0.1,0.1,0.3,0.1,0.3c0.6,0.1,0.9-0.4,1.3-0.7C164.9,23.7,164.9,23.7,165,23.5z M173.1,62.4
			c-0.7,0-1.2,0-1.5,0.7C172.2,63.1,172.7,63,173.1,62.4z M149.1,52.1c-0.4,0.1-0.9-0.3-1.1,0.4c0,0.2-0.1,0.4,0.2,0.5
			C148.7,53,149,52.7,149.1,52.1z"/>
		<path class="st7" d="M35.9,133.3c0.5-0.6,1.1-1.2,0.9-2.1l0,0c0.6-1.6,0.1-3.1-0.4-4.6c-0.3-0.7-1.1-0.6-1.6-0.5
			c-2.2,0.3-3.9-0.7-5.4-2.2c-0.9-1-1.4-2.3-1.6-3.6c-0.3-1.9-1.2-3.5-2.3-4.9c-0.4-0.5-0.6-1.1-0.6-1.8c0-1.6,0.2-3.2,0.5-4.8
			c0.6-3,2.3-5,5.1-6.3c4.3-2,7.7-5.1,10.5-8.9c1-1.3,2.4-2,4-1.7c0.6,0.1,1.1,0.2,1.7,0.2c1.3,0,1.9,0.5,2,1.8
			c0.1,1.9,0.4,3.9-0.1,5.8c-0.1,0.5,0.1,0.8,0.4,1.1c0.8,0.7,1.6,1.5,2.5,2.2c1.2,1.1,1.2,1.1,1.4,3c0.7-0.6,1.1-1.8,2.2-0.8
			c0,0,0,0,0,0c0.1,0.1,0.1,0.2,0.2,0.3l0,0.1c0.1,0.2,0.2,0.4,0.4,0.5l0,0c0.1,0.1,0.2,0.2,0.2,0.2l0,0c0.6,1.4,1.2,2.7,2.1,3.9
			l0,0c0.9,0.9,1.9,0.5,2.9,0.3c0.7-0.2,1.4-0.6,2.1-1c0.7-0.3,1.3-0.7,2-0.7c-0.2,4.9-0.4,9.9-0.6,14.8c0,0.8-0.2,1.1-1.1,1.1
			c-3.3-0.1-6.5,0-9.8,0c-0.8,0-1,0.2-1,1c0,2.2,0,4.4,0,6.7c0,0.5,0,0.9-0.8,0.9C46.5,133.3,41.2,133.3,35.9,133.3z"/>
		<path class="st10" d="M74,105.8c-0.3-6.4-0.5-12.7-0.8-19.1c0-0.8,0.2-1.1,1.1-1.1c3.8,0,7.5,0,11.3,0c0.9,0,1.1,0.3,1.1,1.1
			c-0.5,11.7-1,23.4-1.6,35c-0.1,1.1-0.1,2.3-0.1,3.4c0,0.6-0.3,0.9-0.9,0.9c-2.8,0-5.6,0-8.4,0c-0.9,0-0.8-0.5-0.9-1.1
			C74.5,118.6,74.2,112.2,74,105.8C74,105.8,74,105.8,74,105.8z"/>
		<path class="st10" d="M125.2,105.9c-0.2,6.4-0.5,12.9-0.7,19.3c0,0.7-0.2,0.9-0.9,0.9c-2.7,0-5.4,0-8,0c-0.7,0-0.9-0.2-0.9-0.9
			c-0.4-9.3-0.9-18.5-1.3-27.8c-0.2-3.5-0.3-7-0.5-10.6c0-0.8,0.1-1.2,1.1-1.2c3.7,0.1,7.4,0.1,11,0c1,0,1.1,0.3,1.1,1.2
			C125.7,93.2,125.5,99.5,125.2,105.9C125.2,105.9,125.2,105.9,125.2,105.9z"/>
		<path class="st10" d="M105.2,105.8c-0.3,6.3-0.6,12.6-0.8,18.9c0,1.1-0.3,1.5-1.4,1.4c-2.3-0.1-4.6-0.1-6.9,0c-0.8,0-1-0.3-1.1-1
			c-0.4-8.3-0.8-16.7-1.2-25c-0.2-4.4-0.4-8.7-0.7-13.1c-0.1-1.1,0.3-1.3,1.3-1.3c3.5,0.1,7,0.1,10.5,0c0.9,0,1.1,0.3,1.1,1.2
			C105.8,93.1,105.5,99.4,105.2,105.8z"/>
		<path class="st7" d="M61.6,101c-0.4,0.4-0.4,0.9-0.5,1.4c-0.1,0.7-0.3,0.7-0.9,0.3c-3.7-2.5-4.9-6.2-4.9-10.4c0-1.3-0.1-2.6,0-3.9
			c0.2-2.4-0.6-4.7-1.4-6.9l0,0c0-0.8-0.7-0.7-1.1-0.7c-0.6,0-1.1,0.2-1.8,0.3c-0.1-0.8,0.3-1.5,0.7-2.1c1-1.8,2.2-3.5,2.7-5.6
			c0.2-0.7,0.6-0.3,0.9-0.1c1.1,1.1,2.7,1.4,3.9,2.3c0.4,0.3,1,0.1,1.5,0.6c0.9,0.8,0.8,1.9,1.2,2.9c-0.6,0.2-0.8,0.5-0.5,1.1
			c0.8,2,1.5,3.9,2.2,5.9c0.3,0.8,0.8,0.7,1.3,0.7c0.8-0.1,1.1,0.2,1.1,1.1c-0.2,3.7-0.3,7.5-0.5,11.2c-1.4,0-2.8,0-3.6,1.5
			C61.7,100.8,61.7,100.9,61.6,101z"/>
		<path class="st10" d="M77.4,79.6c2.6-1.1,5.1-2.2,7.7-3.3c4.7-2,9.4-4,14-6c0.5-0.2,1-0.4,1.6-0.1c7.1,3.1,14.3,6.2,21.4,9.2
			c0.2,0.1,0.3,0.2,0.7,0.4c-15.3,0-30.3,0-45.4,0C77.5,79.8,77.4,79.7,77.4,79.6z"/>
		<path class="st7" d="M30.2,133.3C30.2,133.2,30.2,133.2,30.2,133.3c1.3-1.3,1.3-1.3,2.4,0C31.7,133.3,30.9,133.3,30.2,133.3z"/>
		<path class="st11" d="M139.1,195.2c-6.4,0-12.7,0-19.1,0c-4,0-8,0.2-12,1.1c-6.5,1.5-13.1,0.9-19.5-0.7c-0.9-0.2-1.9-0.4-2.8-0.4
			c-16.7,0-33.4,0-50.2,0c-0.5,0-1.3,0.3-1.5-0.4c-0.2-0.8-0.4-1.7,0.3-2.4c1-1.2,2-2.4,3.1-3.5c0.5-0.6,0.7-1.1,0.7-1.9
			c0-5.8,0-11.6,0-17.4c0-1,0.3-1.6,1.1-2.2c5.9-4.2,11.8-8.5,17.7-12.8c0.4-0.3,0.8-0.4,1.3-0.3c2.6,0.5,5.2,0.6,7.9,0.8
			c2.8,0.2,5.5-0.5,8.1-1.2c3.9-1.1,7.9-2.2,12-2.2c3.4-0.1,6.8,0.2,9.9,1.8c1.4,0.7,2.6,1.8,3.6,3c0.3,0.4,0.5,0.5,0.8,0
			c2.6-3.4,6.2-4.5,10.3-4.8c5.5-0.4,10.8,0.9,16,2.4c4.6,1.4,9.2,1.1,13.9,0.4c1.3-0.2,2.4-0.1,3.6,0.8c5.6,4.2,11.3,8.2,17,12.3
			c0.6,0.4,0.6,1,0.6,1.6c0,5.6,0.1,11.2,0,16.8c0,1.5,0.5,2.6,1.4,3.6c0.6,0.6,1.2,1.2,1.9,1.9c0.3,0.3,0.6,0.7,0.9,1.1
			c0.9,1.5,0.2,2.7-1.4,2.7C156,195.2,147.5,195.2,139.1,195.2z M100.1,173.4c-0.1-0.1-0.3-0.2-0.3-0.3c-3-4-7.1-5.8-12-6.1
			c-5.4-0.3-10.8,0.6-16.1,1.8c-5,1.2-10,2.3-15.2,2.2c-4.8-0.1-9.6-0.4-14.3-1.1c-1-0.1-1.3,0-1.3,1.1c0.1,5.8,0,11.7,0,17.5
			c0,0.9,0.2,1.2,1.1,1.2c15.2,0,30.4,0,45.6,0c0.6,0,1-0.1,1.4-0.5c1.3-1.3,3-2.2,4.8-2.7c3.2-1,6.5-1,9.8-0.6
			c2.7,0.4,5.2,1.2,7.3,3.1c0.5,0.5,1,0.7,1.7,0.7c6.3,0,12.5,0,18.8,0c8.9,0,17.8,0,26.7,0c0.6,0,1.1,0.1,1.1-0.8
			c0-6.1,0-12.1,0-18.2c0-0.7-0.2-0.9-0.9-0.8c-3.1,0.3-6.2,0.5-9.3,0.8c-4.9,0.4-9.9,0.5-14.8-0.5c-5.2-1.1-10.3-2.5-15.6-2.9
			c-3.9-0.3-7.8-0.5-11.6,0.9C104.1,169.1,101.9,170.9,100.1,173.4z M158.9,168.3c-0.2-0.2-0.2-0.3-0.3-0.4
			c-5.5-4.1-11-8.1-16.4-12.2c-0.4-0.3-0.8-0.3-1.3-0.3c-6.3,0.9-12.6,0.6-18.7-1.5c-3.5-1.2-7.2-1.7-11-1.4c-3,0.2-5.9,0.8-8.4,2.7
			c-1.3,1-2.3,2.1-1.8,4c0.2,0.7,0.1,1.4,0.1,2.2c0.2,2.8,0.3,5.5,0.5,8.4c3.9-2.9,4.8-3.4,7.8-3.9c5.4-0.9,10.8-0.2,16.1,0.9
			c4.1,0.8,8,2,12.1,2.6c5.4,0.8,10.8,0.2,16.2-0.4C155.4,168.8,157.1,168.6,158.9,168.3z M41.1,168.1c0.1,0.2,0.1,0.2,0.2,0.2
			c1.7,0.2,3.4,0.5,5.1,0.7c8,1.1,15.9,1,23.7-1.2c5.1-1.5,10.2-2.3,15.5-2.3c4.7,0,9.3,0.6,12.9,4.5c0.2-4.3,0.5-8.3,0.7-12.3
			c0-0.5-0.3-0.8-0.6-1.1c-1.8-2-4-3-6.6-3.5c-5.1-1-10.1-0.3-15.1,1.3c-4.3,1.3-8.7,1.9-13.1,1.7c-1.9-0.1-3.9-0.9-5.6-0.3
			c-1.7,0.7-3.1,2.2-4.7,3.3C49.4,162,45.3,165.1,41.1,168.1z"/>
		<path class="st12" d="M136.9,56.9c0.4-0.2,0.7-0.4,0.9-0.8c1.4-2.6,3.4-4.5,6.2-5.8c3.3-1.5,6.6-2.7,10.2-3.2
			c0.8-0.1,1.6-0.2,2.3,0.4c0.5,0.4,0.7,0.1,0.8-0.4c0.1-0.5,0.3-1,0.9-1c0.6,0,1.3,0,1.5,0.8c0.1,0.5,0.7,0.8,0.8,1.4
			c0.1,0.8-0.3,1.1-0.9,1.2c-0.6,0.1-0.6-0.5-0.6-0.9c0-0.6-0.2-0.9-0.7-0.9c-0.4,0-0.7,0-0.4,0.5c0.4,0.6-0.1,1-0.4,1.4
			c-0.2,0.2-0.9,0.6-0.9-0.3c0-0.5-0.4-0.8-0.4-1.3c-0.1-0.7-0.4-0.7-0.8-0.1c-0.6,0.9-1.4,1.2-2.4,1.1c-1-0.1-1.7,0.1-1.7,1.3
			c0,0.2,0,0.5-0.4,0.6c-0.4-0.3-0.5-0.8-0.6-1.2c-0.2-0.8-0.5-0.6-0.9-0.2c-0.2,0.2-0.4,0.6-0.7,0.8c-0.4,0.4-0.7,0.9-1.2,0.1
			c-0.3-0.5-0.6-0.2-0.6,0.2c-0.1,0.5-0.3,0.7-0.7,0.9c-1.2,0.5-2,1.9-2,3.2c0,0.6,0.3,1.3-0.3,2.1c-0.3-1-0.6-1.9-0.9-2.7
			c-0.1-0.3-0.1-0.8-0.7-0.8c-0.8,0-0.2,0.6-0.3,0.8c-0.8,1.8-1.6,3.6-2.8,5.1c-0.3,0.3-0.4,0.5-0.3,1c0,0.8-0.3,1.7-0.5,2.6
			c-0.4,1.8-0.9,3.6-1.1,5.4c0,0.3-0.2,0.6,0,0.8c0.5,0.3,0.6,0.6-0.1,0.8c-0.5,0.2-0.9,0.5-1.2-0.3c-0.6-1.8-0.4-3.5,0.3-5.2
			c0.2-0.6,0.8-1.1-0.2-1.6c-0.6-0.3-0.8-1.2-0.3-1.9c0.4-0.5,0.4-1-0.1-1.4c0.3-0.7,0.7-1.5,1-2.2C136.8,57.1,136.9,57,136.9,56.9
			L136.9,56.9z"/>
		<path class="st12" d="M146.1,25.1c0.4,0,0.7-0.1,1.1,0c0,0.4-0.2,0.6-0.5,0.8c-0.6,0.2-0.6,0.8-0.9,1.2c-0.6,0.8-1,1.6-1.5,2.4
			c-0.2,0.3-0.9,0.3-1.4,0.1c-1.5-0.5-3.8,0.2-4.6,1.4c1.7-0.1,3.3-1,5-0.3c-0.1,0.6-0.5,0.8-0.9,0.8c-1.8-0.3-3.3,0.8-4.9,1.2
			c-0.4,0.1-0.8,0.2-1.1-0.3c-0.3-0.6-0.5-1.2,0.1-1.7c0.5-0.3,0.9-0.6,1.4-0.9c1.4-0.5,3.1-0.4,4.3-1.5c0.9-0.9,1.9-1.7,2.8-2.6
			c0,0,0,0,0,0c0.2,0,0.4,0,0.5-0.2c0,0,0,0,0,0C145.7,25.4,146,25.3,146.1,25.1L146.1,25.1z"/>
		<path class="st12" d="M148.3,32.7c-0.8,1.3-1.8,2.5-2.7,3.6c-0.5,0.7-1.4,0.1-1.9,0.6c-0.2,0.2-0.7,0.1-0.6,0.4
			c0.4,1.9-1,0.4-1.4,0.8c0,0,0,0,0,0c0-0.2-0.2-0.2-0.4-0.2c0-0.1-0.1-0.1-0.1-0.1c0-0.3-0.1-0.5,0.2-0.7c2.2-1.6,4.3-3.4,6.8-4.6
			C148.2,32.6,148.2,32.7,148.3,32.7z"/>
		<path class="st13" d="M156.6,122.8c0.5,0.9,1.4,1.6,1.1,2.7c-1-1.5-3.5-2-3-4.6C155.4,121.7,156.3,121.9,156.6,122.8
			C156.6,122.8,156.6,122.8,156.6,122.8z"/>
		<path class="st9" d="M145,25.6c-0.9,0.9-1.9,1.7-2.8,2.6c-1.2,1.1-2.9,1-4.3,1.5c0.7-0.9,1.7-1.1,2.7-1.3c1.1-0.3,1.9-0.8,2.5-1.7
			C143.5,25.9,144.2,25.6,145,25.6z"/>
		<path class="st9" d="M136.5,30.7c-0.6,0.5-0.4,1.1-0.1,1.7c0,0-0.1,0.1-0.1,0.1c-0.5-0.1-0.8-0.9-1.4-0.5
			c-0.1-0.1-0.1-0.1-0.2-0.2C135.1,31.2,135.7,30.7,136.5,30.7z"/>
		<path class="st9" d="M144.4,67.3c0.2-0.2,0.3-0.4,0.5-0.7c0.1,0.1,0.1,0.1,0.2,0.2c-0.1,0.2-0.3,0.5-0.4,0.7
			C144.6,67.4,144.5,67.4,144.4,67.3z"/>
		<path class="st9" d="M164.8,43.7c0-0.3,0.2-0.4,0.5-0.5c0,0,0.1,0.1,0.1,0.1C165.2,43.5,165,43.6,164.8,43.7L164.8,43.7z"/>
		<path class="st9" d="M146.2,25.1c-0.2,0.2-0.4,0.2-0.7,0.2C145.6,25.1,145.9,25.1,146.2,25.1z"/>
		<path class="st9" d="M134.5,32.6c-0.2-0.3-0.2-0.6,0.1-0.8c0.1,0.1,0.1,0.1,0.2,0.2c0,0.2-0.1,0.3-0.1,0.5
			C134.6,32.5,134.6,32.5,134.5,32.6z"/>
		<path class="st9" d="M165.2,43.3c0.1-0.1,0.3-0.2,0.4-0.3c0,0,0.1,0.1,0.1,0.1c-0.1,0.1-0.2,0.2-0.4,0.3
			C165.3,43.4,165.3,43.3,165.2,43.3z"/>
		<path class="st9" d="M164.3,43.9c0.1-0.2,0.3-0.3,0.5-0.2c0,0,0,0,0,0C164.7,43.8,164.5,43.9,164.3,43.9
			C164.4,44,164.3,43.9,164.3,43.9z"/>
		<path class="st9" d="M145.5,25.3c-0.1,0.2-0.3,0.3-0.5,0.2C145.1,25.3,145.3,25.4,145.5,25.3z"/>
		<path class="st9" d="M137,56.9c-0.1,0.1-0.2,0.2-0.2,0.3C136.7,57,136.8,56.9,137,56.9z"/>
		<path class="st9" d="M134.8,32.8c-0.1-0.1-0.1-0.2-0.2-0.3c0,0,0.1-0.1,0.1-0.1c0.1,0.1,0.2,0.1,0.3,0.2
			C134.9,32.7,134.8,32.7,134.8,32.8z"/>
		<path class="st9" d="M141.2,38c0.1,0,0.3,0,0.4,0.2C141.4,38.1,141.3,38.1,141.2,38z"/>
		<path class="st12" d="M57.3,42.6c1-1.2,2.2-2.1,1.5-4c-0.5-1.5,2.2-4.6,4.2-4.9c-0.3,0.7-0.7,1.3-1.3,1.7c-0.4,0.3-0.7,0.6-0.5,1
			c0.5,1.3-0.2,2.3-0.9,3.2c-0.7,1-0.5,2.2-0.8,3.2c-0.7,1.8-1.1,3.8-2.9,5c-0.2,0.1-0.3,0.5-0.2,0.6c0.3,0.3,1,0.5,0.3,1.1
			c-0.4,0.3-0.7,0.8-1,1.3c-0.6-0.6,0-0.9-0.3-1.3c-0.5,0.7-1,1.4-1.5,2.1c0,0.1,0,0.2,0,0.3c0.3,0.4,0.1,1.4-0.4,1.5
			c-0.5,0.2-0.5-0.3-0.6-0.6c-0.4-1.5-0.1-2.9,0.5-4.2c0.3-0.8,0.7-1.5,1.1-2.2c0,0,0,0,0,0c0.2-0.1,0.4-0.2,0.2-0.5c0,0,0,0,0,0
			c0.2,0.1,0.3-0.1,0.2-0.2c0,0,0,0,0,0c0.2,0,0.2-0.1,0.2-0.2c0,0,0,0,0,0c0.2,0,0.2-0.1,0.2-0.3c0,0,0,0,0,0
			c0.1-0.2,0.2-0.3,0.4-0.5c0.2-0.4,0.5-0.8,0.7-1.1c0.2,0,0.3,0,0.4-0.2c0,0,0,0,0,0c0.2-0.1,0.3-0.2,0.3-0.5c0,0,0,0,0,0
			C57.3,42.9,57.3,42.8,57.3,42.6L57.3,42.6z"/>
		<path class="st8" d="M21.3,32.4c0.1-0.4,0.2-0.7,0.3-1.1c0.2-0.6,0.4-1.2,0.5-1.9c0.1-0.9-1-0.7-1.3-1.2c-0.1-0.1-0.1-0.2-0.2-0.5
			c3.2-0.1,4.3-2.4,5-5c0.2-0.8,0.5-1.6,1.1-2.2c0,0,0.1,0.1,0.1,0.1c-0.8,4.4-2.9,8.3-5.3,12C21.4,32.5,21.4,32.4,21.3,32.4z"/>
		<path class="st13" d="M30.4,16.4c1.7-0.2,3.5-0.6,5.2-0.3c0.3,0.1,0.9-0.2,0.9,0.4c0,0.5-0.7,0.4-1,0.4c-1.7-0.5-3.4,0-5,0
			c0,0,0,0,0,0C30.5,16.7,30.5,16.5,30.4,16.4L30.4,16.4z"/>
		<path class="st8" d="M30.4,16.4c0,0.1,0.1,0.3,0.1,0.4c-0.2,0-0.5,0-0.5-0.3C30,16.3,30.2,16.3,30.4,16.4z"/>
		<path class="st8" d="M20.9,32.9c0.1-0.2,0.3-0.3,0.4-0.5c0.1,0,0.1,0.1,0.2,0.1c-0.1,0.2-0.2,0.4-0.3,0.6
			C21.1,33,21,32.9,20.9,32.9z"/>
		<path class="st8" d="M16.5,75.6c0.1-0.1,0.2-0.3,0.3-0.4c0.1,0.1,0.1,0.1,0.2,0.2c-0.1,0.1-0.2,0.3-0.3,0.4
			C16.6,75.7,16.5,75.7,16.5,75.6z"/>
		<path class="st8" d="M57.1,42.8c0.1,0.2,0,0.4-0.3,0.5C56.8,43.1,56.9,42.9,57.1,42.8z"/>
		<path class="st8" d="M54.8,45.8c0.1,0.3,0,0.4-0.2,0.5C54.5,46,54.6,45.9,54.8,45.8z"/>
		<path class="st8" d="M21.6,119.5c-0.1-0.1-0.2-0.3-0.3-0.4c0,0,0.1-0.1,0.1-0.1c0.1,0.1,0.2,0.3,0.3,0.4
			C21.7,119.4,21.6,119.5,21.6,119.5z"/>
		<path class="st8" d="M60.3,52.5c-0.1,0.2-0.1,0.3-0.2,0.5c0,0-0.1-0.1-0.1-0.1C60.1,52.8,60.2,52.6,60.3,52.5L60.3,52.5z"/>
		<path class="st8" d="M55.8,44.7c-0.1,0.2-0.2,0.3-0.4,0.5C55.4,44.9,55.6,44.7,55.8,44.7z"/>
		<path class="st8" d="M55.6,35.4c0.1-0.1,0.2-0.3,0.3-0.4c0,0,0.1,0.1,0.1,0.1c-0.1,0.1-0.2,0.3-0.2,0.4
			C55.7,35.5,55.7,35.4,55.6,35.4z"/>
		<path class="st8" d="M22.9,68.5c0.1-0.1,0.2-0.2,0.2-0.2c0,0,0.1,0.1,0.1,0.1c-0.1,0.1-0.1,0.2-0.2,0.2C23,68.6,23,68.5,22.9,68.5
			z"/>
		<path class="st8" d="M22.7,68.7c0.1-0.1,0.2-0.2,0.2-0.2c0.1,0,0.1,0.1,0.2,0.2c-0.1,0.1-0.1,0.2-0.2,0.3
			C22.8,68.8,22.7,68.8,22.7,68.7z"/>
		<path class="st8" d="M22.5,68.9c0.1-0.1,0.1-0.1,0.2-0.2c0.1,0.1,0.1,0.1,0.2,0.2c-0.1,0.1-0.1,0.2-0.2,0.3
			C22.6,69.1,22.5,69,22.5,68.9z"/>
		<path class="st8" d="M55,45.6c0,0.2,0,0.3-0.2,0.2C54.8,45.7,54.9,45.6,55,45.6z"/>
		<path class="st8" d="M21.3,119.1c-0.1-0.1-0.1-0.2-0.2-0.3c0.1-0.1,0.1-0.1,0.2-0.2c0,0.1,0.1,0.2,0.1,0.3
			C21.4,119,21.4,119.1,21.3,119.1z"/>
		<path class="st8" d="M21.8,119.8c-0.1-0.1-0.1-0.2-0.2-0.3c0,0,0.1-0.1,0.1-0.1c0.1,0.1,0.1,0.2,0.2,0.2
			C21.9,119.7,21.8,119.7,21.8,119.8z"/>
		<path class="st8" d="M56.9,43.3c0,0.2-0.2,0.3-0.4,0.2C56.6,43.4,56.8,43.4,56.9,43.3z"/>
		<path class="st8" d="M23.2,68.3c0.1-0.1,0.2-0.2,0.2-0.2c0,0,0.1,0.1,0.1,0.1c-0.1,0.1-0.2,0.2-0.2,0.2
			C23.2,68.4,23.2,68.3,23.2,68.3z"/>
		<path class="st8" d="M55.9,35c0.1-0.1,0.1-0.2,0.2-0.3c0,0,0.1,0.1,0.1,0.1c-0.1,0.1-0.1,0.2-0.2,0.3C56,35,55.9,35,55.9,35z"/>
		<path class="st8" d="M57.3,42.6c0,0.2,0,0.3-0.2,0.2C57.1,42.7,57.2,42.6,57.3,42.6z"/>
		<path class="st8" d="M55.3,45.4c0,0.2,0,0.3-0.2,0.2C55,45.4,55.1,45.4,55.3,45.4z"/>
		<path class="st8" d="M23.8,67.6c0.1-0.1,0.1-0.2,0.2-0.2c0.1,0.1,0.1,0.1,0.2,0.2c-0.1,0.1-0.2,0.1-0.3,0.2
			C23.9,67.7,23.9,67.6,23.8,67.6z"/>
		<path class="st8" d="M23.6,67.8c0.1-0.1,0.2-0.2,0.2-0.2c0.1,0,0.1,0.1,0.1,0.1c-0.1,0.1-0.2,0.1-0.2,0.2
			C23.7,67.9,23.7,67.9,23.6,67.8z"/>
		<path class="st8" d="M23.4,68c0.1-0.1,0.2-0.1,0.2-0.2c0,0,0.1,0.1,0.1,0.1c-0.1,0.1-0.2,0.2-0.2,0.2C23.5,68.1,23.4,68.1,23.4,68
			z"/>
		<path class="st8" d="M55.5,45.1c0,0.1-0.1,0.2-0.2,0.3C55.2,45.2,55.3,45.1,55.5,45.1z"/>
		<path class="st14" d="M40.1,71.8c-0.7,0.1-1.6-0.6-1.9,0.6c-0.1,0.5-0.9,0.9,0.1,1.3c0.1,0,0.1,0.2,0.1,0.3
			c-0.5,1.5,0.5,2.9,0.4,4.4c0,1.3-0.2,2.5-1,3.6c-0.5-0.5,0.1-0.8-0.1-1.3c-0.5,0.1-1.3,0.7-1.3-0.6c-1.2,0.6-2.2,1.2-2.4,2.5
			c-0.1,0.6-0.8,0.9-0.8,1.6l0,0c-0.3-0.2-0.4,0-0.5,0.2l0,0c-0.6,0.2-1.2,0.6-1.7,1.1c-0.1,0.1-0.2,0.1-0.3,0.2
			c-0.1,0.1-0.2,0.1-0.2,0.2c-0.1,0.1-0.2,0.2-0.3,0.3c0.2,0.1,0.3,0.1,0.5-0.1c0.1-0.1,0.2-0.2,0.2-0.2c0.1-0.1,0.2-0.1,0.3-0.2
			c0.1,0,0.4-0.2,0.4-0.1c0.2,0.2,0,0.3-0.1,0.5c-0.6,0.9-1.5,1.6-2.4,2.2c-0.3,0.2-1.3,0.3-0.2,0.9c0.3,0.1,0.1,0.5,0,0.7
			c-0.2,0.5-0.4,1-0.6,1.5c-0.1,0.4-0.7,0.8,0.1,1.3c0.4,0.2-0.3,0.6-0.3,1l0,0c-1.5,0.6-3.1,3.4-2.2,4.5c0.9,1.3,0.9,1.8-0.4,2.3
			c-0.1,0-0.1,0.1-0.1,0.2c0,1.9-1.6,2.8-2.5,4c-0.7,0.9-1.6,1.6-1.8,2.8c-0.1,0.4-0.5,0.7-0.9,0.6c-0.5-0.1-0.3-0.6-0.3-0.9
			c-0.1-1.2,0.3-2.2,1-3.1c0.8-1.1,1.2-2.4,1.8-3.5c1.3-2.5,2-5.2,3.4-7.5c0.3-0.5,0.7-1,0.1-1.6C25.7,92,25.4,92.5,25,93
			c-0.2,0.2-0.4,0.6-0.7,0.4c-0.2-0.1-0.5-0.5-0.5-0.7c-0.1-0.6,0-1.4,0.4-1.8c0.6-0.4,0.7-1,0.9-1.5c0.4-1.2,1-2.2,1.8-3.2
			c0.5-0.5,0.7-0.9-0.2-1.3C26,84.7,26,84,26.5,83.7c1-0.6,1.3-1.5,1.8-2.4c0.5-0.9,0.9-2,2.3-1.8c0.4,0,0.6-0.5,0.7-0.8
			c0.2-0.9,0.7-1.5,1.6-1.9c1.3-0.6,1.7-1.9,1.6-3.2c0-0.7,0-1.2,0.7-1.4c0.6-0.2,0.6-0.6,0.3-1.1c-0.4-0.8-0.8-1.7,0.4-2.3
			c0.6-0.4,0.5-1-0.1-1.6c-0.1-0.1-0.2-0.4-0.2-0.6c-0.2-1.3,0.2-2.4,0.8-3.5c0.4-0.7,1.3-1.5,1-1.9c-0.4-0.6-1-1.4-1.8-1.8
			c-0.9-0.4-0.6-1.2-0.9-1.8c-0.2-0.4,0.3-1,1-0.9c0.9,0.2,1.7,0.4,2.7,0.7c-1.1,0.7,0.2,1.4-0.2,2.1c0.2-1,1.2-1.5,1.4-2.5
			c0.1-0.3,0.5-0.5,0.6-0.4c0.9,0.5,1.4-0.4,2.2-0.5c0.6-0.1,0.4-0.6,0.2-0.9c-0.5-1.1,0.5-1.4,0.9-2c0.1-0.1,0.3-0.2,0.4-0.1
			c1.3,0.9,2.4,0,3.6-0.2c0.3,0,0.8-0.2,0.9,0.4c0,0.2,0.2,0.3,0.3,0.4c0.2,0.3,0.9,0.2,0.8,0.7c-0.1,0.5-0.4,1-0.7,1.4
			c-0.2,0.3-1.5,0.5-2.1,0.4c-0.1,0-0.2,0-0.2,0c-0.1,1.3-2.3,0.4-2.1,2.1c0.3,0.3,0.7-0.4,1,0c0.2,0.4-0.2,0.7-0.4,1
			c-0.1,0.2-0.2,0.3-0.2,0.5c-0.8,1.8-1.3,2.2-3.3,2.1c-2.3-0.1-2.7,0.2-3.3,2.6c0.7-0.2,1.4-0.1,2.1,0.1c1.3,0.3,2.3,2.3,1.5,3.4
			c-0.7,0.8-0.8,1.9-1.5,2.6c-0.5,0.5,0.7,0.5,0.3,1l0,0C40.5,71.5,40,71.3,40.1,71.8L40.1,71.8z M36.7,80c0.5-0.5,0.6-1.1,0.5-1.7
			c-0.2,0.5-0.4,1-0.6,1.5c-0.1,0.1-0.2,0.2-0.1,0.3C36.5,80.2,36.6,80.1,36.7,80z"/>
		<path class="st14" d="M21.1,33.1c0.1-0.2,0.2-0.4,0.3-0.6c2.4-3.7,4.4-7.6,5.3-12c1.1-0.2,1,0.6,0.8,1.2c-0.2,0.6-0.5,1.1-0.8,1.7
			c-0.1,0.2-0.2,0.5,0,0.6c0.2,0.1,0.4-0.1,0.6-0.3c0.3-0.3,0.2-1.3,1-1c0.6,0.3,0.2,1,0.2,1.5c0,1.2,0,2.4-0.1,3.7
			c0,0.3,0.1,0.7,0.5,0.7c0.4,0,0.3-0.4,0.4-0.6c0.1-0.7,0.1-1.5,1.1-1.8c0,0.6,0,1.1,0,1.7c1-0.5,1.8-0.4,2.1,0.7
			c0.1,0.2,0.2,0.3,0.4,0.2c0.2,0,0.6-0.3,0.7,0.1c0.1,0.4-0.2,0.5-0.5,0.6c-0.8,0.3-0.7,1.1-1.2,1.6c-0.3,0.3-0.4,0.9-1.1,0.9
			c-0.7,0-0.6-0.7-0.8-1.1c-0.7,0.7-0.7,1.5-0.7,2.2c-0.1,2.2,0.5,4.2,1.1,6.3c0.1,0.3,0.2,0.5,0.5,0.5c0.4,0.1,0.4,0.3,0.2,0.6
			c-0.2,0.2-0.5,0.2-0.7-0.1c-0.3-0.5-0.7-0.9-0.9-1.4c-0.8-1.8-1.5-3.7-2.2-5.7c0.1,2.1-0.7,4.2,0.2,6.2c0,0.1,0,0.2,0.1,0.2
			c0.7,0.4,1.6,0.8,0.6,1.8c-0.1,0.1,0.6,0.5,0.9,0.7c0.4,0.3,0.8,0.5,0.1,0.9c-0.2,0.1-0.3,0.5-0.1,0.6c1,0.1,0.6,1.2,1.2,1.6
			c0.3,0.2,0.2,0.7,0,0.9c-0.2,0.3-0.4-0.1-0.7-0.2c-1.1-0.7-2-1.7-3-2.7c-0.7-0.7-1-1.7-1.2-2.7c-0.1-0.4-0.1-0.8-0.3-1.2
			c-0.1,1.3-0.3,2.6,0.1,3.9c0.1,0.3,0.1,0.5,0.2,0.8c0.2,0.4,0.1,0.6-0.3,0.8c-0.5,0.3-0.7-0.1-0.7-0.4c-0.2-1-1.1-1.8-0.7-3.1
			c0.1-0.4-0.3-1-0.4-1.5c-0.1-0.9,0.6-1.7,0.4-2.6c-0.3-1.1,0-1.6,1-2c0.5-0.2,0.1-1.2,0-1.3c-0.9-0.6-0.4-1.3-0.2-1.9
			c0.1-0.1,0.1-0.2,0.2-0.3c0.1-0.1,0.2-0.1,0.3-0.2c0.1-0.1,0.2-0.2,0-0.3c0,0-0.1,0.1-0.2,0.2c-0.1,0.1-0.1,0.2-0.2,0.2
			c-0.1,0.1-0.1,0.2-0.2,0.2c-0.4,0.4-0.8,0.9-1.2,1.3C23,33.7,22.8,34,22.6,34c-1.3,0-2,0.7-2.6,1.8C19.6,34.6,20.8,34,21.1,33.1z"
			/>
		<path class="st14" d="M50.7,93c-0.1-0.8-0.2-1.4-0.3-2c0-0.6-0.1-1-0.9-1.1c-0.7,0-0.6-0.6-0.4-1.1c0.2-0.6,0.1-0.7-0.5-0.8
			c-1.1-0.1-1.9-1.4-1.3-2.3c0.3-0.5,0.2-1.1,0.5-1.5c0.6-0.9,1.2-1.6,2.4-1.7c1.1-0.1,1.8,0.3,2.1,1.4c0.3,1.2,0.3,2.5,0.2,3.8
			c-0.1,1-1.1,1.5-1.2,2.4C51.1,91,51.3,92,50.7,93z"/>
		<path class="st12" d="M67.9,70.8c-0.2,0.4-0.4,0.7,0,1.3c0.4,0.6,0.2,1.6,0.3,2.4c0,0.4,0,0.9-0.6,0.9c-0.5,0-0.6-0.4-0.7-0.8
			c0-0.3-0.1-0.5-0.1-0.9c-1,0.2-1.3,1-1.4,1.8c0,0.3,0,0.6-0.3,0.7c-0.2,0.1-0.4-0.2-0.5-0.4c-0.2-0.5-0.6-0.4-1-0.5
			C62,75.3,61.1,74,62,73.1c0.7-0.7,1-1.3,1.1-2.2c0.1-0.8,2.8-1.3,3.6-0.6C67.1,70.6,67.5,70.6,67.9,70.8z"/>
		<path class="st12" d="M29.4,48.5c1.9-0.1,2.4,1.3,3,2.3c0.2,0.4,0.3,0.6,0.8,0.6c0.7,0.1,1.6,0.1,1.2,1.3
			c-0.1,0.3,0.1,0.4,0.3,0.5c0.2,0.2,0.6,0.3,0.4,0.7c-0.2,0.3-0.5,0.2-0.8,0.2c-1-0.2-1.8-0.6-2.7-1c-0.2-0.1-0.4-0.2-0.4-0.4
			c0-1.3-0.8-1.9-2-2.2c0,0-0.1,0-0.1-0.1c-0.5-0.4-1.3-0.8-1.1-1.5C28.1,48.4,29,48.6,29.4,48.5z M32.5,51.7c0-0.1-0.1-0.1-0.1-0.2
			c0,0-0.1,0-0.1,0.1c0,0.1,0,0.1,0,0.2C32.4,51.8,32.4,51.8,32.5,51.7z"/>
		<path class="st12" d="M39.2,37.1c-0.5-0.4-0.7-0.9-0.7-1.4c-0.1-0.6,0-1.4-1-0.7c-0.2,0.1-0.3,0-0.5-0.2c-0.9-1.2-0.3-4.1,1.1-4.8
			c0.2-0.1,0.4-0.1,0.5-0.2c0.4-0.1,0.8-0.3,1.1,0c0.2,0.3,0,0.8-0.2,1c-0.3,0.5-0.1,1.6-1.4,1.1C40.3,33.5,39.3,35.4,39.2,37.1z"/>
		<path class="st12" d="M34.1,50.2c0.1-0.3,0.1-0.6,0.2-1c0.1-0.4,0.3-1.1,0.8-0.9c0.5,0.2,1.2,0.3,1.3,1.1c0.1,0.9,0.1,1.9,1.6,1.5
			c0.4-0.1,1.9,1.9,1.8,2.3c-0.1,0.4-0.3,0.3-0.6,0.2c-1.1-0.3-2.1-0.6-3.2-0.9c-0.2-0.1-0.5-0.1-0.5-0.3c-0.1-0.6-0.4-1-1-1.2
			C34,50.9,34,50.6,34.1,50.2z"/>
		<path class="st13" d="M43.8,84.2c-0.1-0.8,0.1-1.3,0.6-1.8c2.3-2,4.1-4.4,5.6-7c0.1-0.2,0.2-0.3,0.3-0.5c0.2-0.3,0.6-0.3,0.9-0.3
			c0.4,0.1,0.3,0.5,0.3,0.8c-0.1,0.7-0.1,1.5-1.2,1.3c-0.7-0.1-1,0.8-1,1c0,1.8-1.6,2.5-2.4,3.7C46.3,82.6,45.2,83.6,43.8,84.2z"/>
		<path class="st12" d="M50.5,93.8c1.6,2.4,1.9,5,0.7,7.7c-0.8-0.5-1.7-0.9-1-2.2c0.2-0.5,0-1.1-0.1-1.6
			C50,96.4,50.1,95.1,50.5,93.8z"/>
		<path class="st12" d="M61.9,28.8c0.6,0,1-0.8,1.9-0.3c-1,1.3-2.1,2.7-3.1,4c-0.2,0.3-0.5,0.1-0.7,0.1c-0.5,0-1,0-1.1,0.7
			c0,0.4-0.3,0.5-0.6,0.5c-0.2,0-0.5-0.1-0.6-0.2c-0.3-0.3,0.1-0.5,0.3-0.8C59.1,31.3,60.7,30.2,61.9,28.8
			C61.9,28.8,61.9,28.8,61.9,28.8z"/>
		<path class="st13" d="M40.8,71.4c0.6,0,0.7-0.7,1.1-0.8c0.4-0.2,1.3-1.1,1.1,0.5c0,0.1,0.4,0.9,0.6,1.3c0.2,0.4,0,0.6-0.3,0.7
			c-0.4,0.1-0.1-0.5-0.5-0.4c-0.1,0.3-0.2,0.6-0.3,1c-0.3,0.7-0.7,0.9-1.4,0.5c-1-0.6-1-0.6-1.1-2.2c0,0,0,0,0,0
			C40.4,71.8,40.7,71.8,40.8,71.4L40.8,71.4z"/>
		<path class="st12" d="M28.1,93.7c1.3-0.1,1.3-0.1,0.9,1.3c-0.2,0.6-1.2,1.4,0.3,1.8c0.2,0.1,0.2,0.3,0.1,0.5
			c-0.1,0.3-0.3,0.6-0.5,0.8c-0.3,0.4-0.4,1.2-1,1c-1.1-0.4-1.6-1.6-1.1-2.4C27.4,95.7,27.8,94.7,28.1,93.7
			C28.1,93.7,28.1,93.7,28.1,93.7z"/>
		<path class="st12" d="M24.6,84.4c0.3,0.1,0.7-0.2,0.8,0.2c0.1,0.4-0.3,0.6-0.5,0.8c-0.2,0.3-0.8,0.3-0.4,1
			c0.1,0.2-0.5,0.4-0.7,0.2c-0.3-0.3-0.7-0.4-1-0.2c-1,0.6-2.1-0.1-3.1,0.1c-0.2,0-0.4,0-0.4-0.3c0-0.3,0.2-0.4,0.4-0.5
			C21.4,85.2,22.9,84.6,24.6,84.4z"/>
		<path class="st13" d="M23.5,68.2c0.1-0.1,0.2-0.2,0.2-0.2c0.1-0.1,0.2-0.1,0.2-0.2c0.1-0.1,0.2-0.1,0.3-0.2c0.3-0.1,0.6-0.3,1-0.5
			c-0.1,0.9,0,1.6-1,2.2c-0.7,0.4-1.1,1.6-1.6,2.4c-0.2,0.4-0.4,0.9-1,0.5c-0.6-0.3-0.3-0.8-0.1-1.2c0.3-0.6,0.7-1.2,1.1-1.9
			c0.1-0.1,0.1-0.2,0.2-0.3c0.1-0.1,0.1-0.2,0.2-0.3c0.1-0.1,0.1-0.2,0.2-0.2C23.4,68.3,23.4,68.2,23.5,68.2z"/>
		<path class="st12" d="M21.9,119.6c-0.1-0.1-0.1-0.2-0.2-0.2c-0.1-0.1-0.2-0.3-0.3-0.4c0-0.1-0.1-0.2-0.1-0.3
			c-0.3-0.8-0.5-1.5-0.3-2.3c0.1-0.3,0.2-0.5,0.5-0.5c0.3,0,0.3,0.3,0.4,0.5c0.3,0.9,0.7,1.8,1.6,2.3c0.3,0.2,0.3,0.5,0.2,0.8
			c-0.3,0.7-0.5,1.5-0.5,2.4C22.5,121.1,22.9,120,21.9,119.6z"/>
		<path class="st12" d="M22.4,61.7c-0.1,0.1-0.2,0.3-0.4,0.5c-0.5,0.5-1,0.9-1.4,1.3c-0.4,0.4-0.9,0.7-1.4,0.4
			c-0.7-0.3-0.2-0.8-0.2-1.3c0.1-0.6,0-1.2,0.8-1.5c0.8-0.3,1.5-0.3,2.2,0.1C22.2,61.3,22.4,61.4,22.4,61.7z"/>
		<path class="st12" d="M20,111.1c0.4,1.3-0.7,1.8-1.5,2.5c-0.4,0.4-0.7,0.2-0.7-0.4c0-1.2,0.4-2.2,0.8-3.3c0.2-0.5,0.6-0.5,1.1-0.5
			c0.5,0,0.3,0.5,0.4,0.8C20.1,110.4,20,110.7,20,111.1z"/>
		<path class="st12" d="M55.3,105.6C55.3,105.6,55.3,105.5,55.3,105.6c0-0.2,0-0.4-0.3-0.4c0,0,0,0,0,0c0-0.4-0.1-0.8,0-1.1
			c0-0.4,0-0.8,0.5-0.9c0.4-0.1,0.6,0.4,0.7,0.4c1.7,0.5,1.2,1.9,1.4,3c0,0.2,0.1,0.6-0.2,0.7c-0.3,0.2-0.4-0.2-0.6-0.4
			c-0.3-0.2-0.4-0.6-0.9-0.7c0,0,0,0,0,0c0-0.2,0-0.3-0.2-0.2c0,0,0,0,0,0C55.8,105.7,55.5,105.7,55.3,105.6z"/>
		<path class="st13" d="M27.5,126c1.6-0.7,2.9-0.5,3.3,0.9c-1.2-1.2-2.3-0.4-3.4,0c-0.5,0.2-0.9,0.2-1.1-0.5c-0.2-0.8-0.7-1.6-1-2.4
			c-0.1-0.3-0.2-0.6,0.2-0.8c0.4-0.2,0.6,0,0.7,0.3c0.3,0.7,0.7,1.5,1,2.2c0,0.1-0.1,0.2-0.1,0.3C27.3,126.1,27.4,126,27.5,126z"/>
		<path class="st12" d="M58,110.2c-0.4-1.1,0.6-1.9,0.4-3.2c1,0.9,1.8,1.6,2.6,2.3c0.2,0.1,0.2,0.4,0,0.5c-0.3,0.3-0.7,0.7-1.2,0.6
			C59.3,110.2,58.7,110.3,58,110.2C58,110.2,58,110.2,58,110.2z"/>
		<path class="st13" d="M35,130.6c0,0.6-0.2,1.1-0.4,1.7c-0.2,0.6-0.6,0.6-1.1,0.5c-0.5-0.1-0.5-0.7-0.3-0.9
			c0.4-0.7,0.2-1.5,0.2-2.2c0-0.3-0.2-0.8,0.3-0.9c0.4-0.1,0.8,0.1,1,0.4C35,129.6,35,130.1,35,130.6z"/>
		<path class="st13" d="M42.8,89.7c-0.1-1.5,1.6-3.4,4.2-4.3c-0.3,1-0.9,1.6-1.3,2.4c0,0.1-0.1,0.2-0.1,0.2
			C43.8,87.3,44,89.5,42.8,89.7z"/>
		<path class="st12" d="M40.1,50.2c0.2-0.7,0.3-1.3,0.4-1.9c0.1-0.3-0.1-0.7,0.3-0.7c0.2,0,0.4,0.2,0.6,0.3c0.2,0.3,0.4,0.6,0,0.9
			c-0.4,0.3-0.2,0.5,0.2,0.6c0.6,0.2,1,0.5,0.5,1.1c-0.3,0.4-0.2,1.4-1,1.2C40.4,51.5,40.2,50.7,40.1,50.2z"/>
		<path class="st13" d="M57.8,73.2c0.5-0.1,0.8,0.3,1.2,0c-0.3-0.5-1.1-0.6-1.1-1.3c0.3-0.3,0.7-0.1,1,0.1c0.6,0.5,1.2,0.7,2,0.6
			c0.6-0.1,0.7,0.5,0.3,1.1C60.4,74.6,58.8,74.5,57.8,73.2z M59.2,73.3c0.3,0.3,0.6,0.3,1,0.1C59.9,73.1,59.5,73.1,59.2,73.3z"/>
		<path class="st13" d="M17.2,83.5c-1.8-1.6-1.7-3.5-1.4-5.4c0.1-0.3,0.2-0.6,0.6-0.4c0.3,0.1,0.5,0.2,0.3,0.7
			c-0.7,1.2-0.3,2.4,0.4,3.4C17.4,82.3,17.3,82.8,17.2,83.5z"/>
		<path class="st13" d="M21.9,109.2c-0.2,0.7-0.4,1.1-0.6,1.5c-0.1,0.2-0.2,0.4,0,0.6c0.6,1,0.4,1.7-0.7,2.3
			C20,111.2,20.3,110,21.9,109.2z"/>
		<path class="st12" d="M30.9,129.9c0.2-0.2-0.5-1.2,0.6-1.2c1.2,0.1,1.1,1.1,1.1,1.9c0,0.4,0.1,1.1-0.7,1
			C31.1,131.5,30.5,131,30.9,129.9z"/>
		<path class="st13" d="M17.1,62.2c1-0.1,1.3,0.3,1,1.3c-0.3,0.8-0.4,1.5-0.8,2.2c-0.1,0.2-0.3,0.5-0.6,0.3
			c-0.2-0.1-0.2-0.4-0.1-0.6C16.6,64.3,17,63.3,17.1,62.2C17.1,62.2,17.1,62.2,17.1,62.2z"/>
		<path class="st13" d="M28.1,60.5c0.6-1.7,0.8-3.2,0-4.7c1,0.5,1.6,1.3,1.6,2C29.6,59.3,29.3,59.9,28.1,60.5z"/>
		<path class="st12" d="M60.3,52.4c-0.1,0.2-0.2,0.3-0.2,0.5c-0.4,0.5-0.7,1-1.2,1.4c-0.7,0.5-0.2-0.3-0.3-0.4
			c0-0.1,0.1-0.1,0.1-0.2c-0.1,0-0.2,0-0.3,0c-0.2,0.2-0.5,0.3-0.7,0.5c-0.2-1.6,1.1-2.6,2.6-2.1C60.3,52.1,60.3,52.3,60.3,52.4z"/>
		<path class="st13" d="M51.1,21.6c-0.8,1.3-2.3,1.6-3.3,0.6c-0.2-0.2-0.3-0.3-0.2-0.6c0.2-0.3,0.3-0.1,0.5,0
			c0.5,0.3,0.5-0.3,0.8-0.6c0.2-0.2,0.2-0.7,0.6-0.5c0.4,0.2,0.1,0.6-0.1,0.9c-0.1,0.1-0.1,0.3-0.3,0.5
			C49.9,21.9,50.4,21.2,51.1,21.6z"/>
		<path class="st13" d="M20.8,72c0,0.7-1.6,2.3-2.1,2.3c-0.4,0-0.7-0.1-0.5-0.6c0.4-1,1-1.7,2-2C20.6,71.6,20.8,71.7,20.8,72z"/>
		<path class="st13" d="M25.6,46.3c0.7,0.2,0.9,0.6,1.1,1.1c0.1,0.2,0.1,0.6,0.4,0.7c0.3,0.1,0.6,0.1,0.5,0.5
			c-0.1,0.5-0.4,0.6-0.7,0.8c-0.6,0.3-0.9,0.1-1-0.5C25.7,48,25.5,47.2,25.6,46.3z"/>
		<path class="st13" d="M56,35.1c0.1-0.1,0.1-0.2,0.2-0.3c0.5,0,0.9-0.4,1.4-0.5c0.2,0,0.5,0,0.6,0.1c0.2,0.2,0,0.4-0.2,0.6
			c-0.4,0.4-0.7,0.8-1.1,1.1c-0.3,0.2-0.6,0.7-0.9,0.5c-0.5-0.2-0.3-0.7-0.2-1.1C55.9,35.4,55.9,35.2,56,35.1z"/>
		<path class="st13" d="M55.3,68.5c0,0.3,0.2,0.6-0.2,0.8c-0.4,0.2-0.5-0.2-0.7-0.4c-0.4-0.6-0.6-1.2-0.5-1.9c0-0.4,0.4-0.6,0.7-0.6
			c0.5-0.1,0.4,0.3,0.5,0.6C55.1,67.5,55.2,68,55.3,68.5z"/>
		<path class="st13" d="M37.1,90.9c-0.3,1.1-0.7,2-1.3,2.7c-0.1,0.2-0.3,0.4-0.6,0.3c-0.3-0.1-0.3-0.4-0.2-0.7
			C35.2,92.1,35.8,91.3,37.1,90.9z"/>
		<path class="st13" d="M40.2,42.5c-0.4-0.1-0.6,0.6-1,0.1c-0.2-0.2-0.2-0.5,0-0.8c0.2-0.4,0.6-0.2,0.9-0.2c0.3,0,0.6,0.1,0.9,0.2
			c0.4,0.1,0.9,0.4,0.8,0.7c-0.2,0.4-0.7,0.8-1.1,0.9C40.2,43.5,40.4,42.8,40.2,42.5z"/>
		<path class="st13" d="M65.6,99.4c0.2,0.3,0.5,0.3,0.8,0.4c0.3,0.2,0.8,0.1,0.5,0.7c-0.2,0.4-0.3,0.9-0.9,0.9
			c-0.4,0-0.8-0.2-0.8-0.8C65.3,100.2,65,99.7,65.6,99.4C65.6,99.4,65.6,99.4,65.6,99.4z"/>
		<path class="st13" d="M24.1,51.1c-0.2,0.4-0.5,0.7-0.5,1.2c0,0.5-0.4,0.9-0.8,0.8c-0.5-0.1-0.3-0.6-0.2-0.9
			C22.7,50.6,22.8,50.6,24.1,51.1z"/>
		<path class="st12" d="M31.6,33.3c0.6,0.1,1.1,0.3,1.1,0.9c0,0.6-0.6,0.8-1.1,0.8c-0.6-0.1-0.7-0.7-0.7-1.2
			C30.9,33.2,31.2,33.2,31.6,33.3z"/>
		<path class="st13" d="M62.2,42.1c-0.5,1.1-1,2-2,2.6C60.3,42.9,60.7,42.3,62.2,42.1z"/>
		<path class="st13" d="M23.1,49.5c-0.3-0.9-0.1-1.6,0.1-2.3c0-0.2,0.1-0.4,0.4-0.4c0.2,0,0.4,0.1,0.4,0.4
			C23.9,48.1,24.1,48.9,23.1,49.5z"/>
		<path class="st13" d="M52.4,92.6c0.4,0.8,0.7,1.6,0.5,2.4c-0.1,0.2-0.2,0.5-0.4,0.5c-0.3,0-0.3-0.3-0.4-0.5
			C51.9,94.1,51.9,93.3,52.4,92.6z"/>
		<path class="st13" d="M63.1,38c0.2-1,0.7-1.7,1-2.4c0.2-0.3,0.5-0.4,0.8-0.3c0.3,0.2,0.1,0.5,0,0.7C64.5,36.7,64,37.4,63.1,38z"/>
		<path class="st13" d="M22.8,40.1c-0.1,0.6-0.3,1-0.7,1.3c-0.3,0.3-0.7,0.8-1,0.4c-0.3-0.3-0.2-1,0.3-1.4
			C21.8,40.3,22.2,40,22.8,40.1z"/>
		<path class="st13" d="M42.9,19.3c0-1.8,0-1.8,1.9-0.8C44.1,18.9,43.6,19.2,42.9,19.3z"/>
		<path class="st13" d="M36.8,131.2c-0.2,0.2-0.5,0.4-0.8,0.8c-0.2-1,0.1-1.9,0.3-2.8C37.2,129.7,36.7,130.5,36.8,131.2
			C36.8,131.2,36.8,131.2,36.8,131.2z"/>
		<path class="st13" d="M52,24.2c-1.1,0.6-1.6-0.1-2.1-1c1,0.9,1.7,0.6,2.3-0.5C52.6,23.4,51.9,23.7,52,24.2L52,24.2z"/>
		<path class="st13" d="M46.7,21.4c-0.3,0-0.7-0.2-0.6-0.3c0.4-0.4,0.8-1,1.4-1.1c0.2-0.1,0.7,0,0.6,0.4
			C47.9,21.1,47.3,21.3,46.7,21.4z"/>
		<path class="st13" d="M21,39.7c0.1-0.8,0.4-1.4,0.9-1.7c0.2-0.1,0.5-0.3,0.7-0.1c0.2,0.2,0.1,0.5-0.1,0.7
			C22.2,39,21.8,39.5,21,39.7z"/>
		<path class="st13" d="M33.8,32.9c0-0.5,0.3-0.9,0.5-1.2c0.2-0.4,0.5-0.7,0.9-0.5c0.4,0.2,0.2,0.7,0,1
			C34.8,32.6,34.4,32.8,33.8,32.9z"/>
		<path class="st13" d="M16.6,75.8c0.1-0.1,0.2-0.3,0.3-0.4c0.5-0.3,1-0.4,0.8,0.5c-0.1,0.4-0.2,0.9-0.4,1.4
			C16.8,76.8,16.7,76.3,16.6,75.8z"/>
		<path class="st13" d="M53.9,81.5c0,0.1,0,0.2,0,0.3c0,0.5,0.3,1.3-0.1,1.3c-0.7,0.1-0.4-0.7-0.5-1.1c-0.1-0.4-0.6-0.3-0.6-0.7
			C53,81.1,53.4,81.4,53.9,81.5C53.9,81.5,53.9,81.5,53.9,81.5z"/>
		<path class="st13" d="M37.3,47.2c0.1-0.3,0-0.9,0.6-0.9c0.3,0,0.6,0.2,0.5,0.6c-0.1,0.4-0.3,0.9-0.9,0.9
			C37.2,47.9,37.4,47.4,37.3,47.2z"/>
		<path class="st13" d="M52,24.2c0.1,0,0.3,0,0.4-0.1c0.4-0.2,0.9-0.3,1.3-0.1c0.1,0,0.1,0.2,0.1,0.3c-0.3,0.4-0.8,0.5-1.2,0.6
			C51.8,25.2,52.4,24.3,52,24.2C52,24.2,52,24.2,52,24.2z"/>
		<path class="st13" d="M61.6,101c0.1-0.1,0.1-0.3,0.2-0.4c0.8,0.1,0.6,0.7,0.6,1.1c0,0.3-0.2,0.4-0.4,0.4c-0.3,0-0.3-0.3-0.3-0.5
			C61.6,101.5,61.6,101.3,61.6,101z"/>
		<path class="st13" d="M41.7,29.3c-0.1,0.9-0.2,1.5-0.3,2.2C40.7,30.8,40.7,30.2,41.7,29.3z"/>
		<path class="st13" d="M64.4,40.5c0.3,0.9,0.1,1.5-0.8,1.9C63.5,41.6,63.8,41,64.4,40.5z"/>
		<path class="st13" d="M42.3,35.5c-0.6,0.4-1,0.8-1.5,0.5c-0.2-0.1-0.2-0.7,0-0.8C41.4,34.8,41.7,35.4,42.3,35.5z"/>
		<path class="st13" d="M19.5,47.1c-0.1-0.1-0.1-0.2-0.1-0.2c0.1-0.5-0.2-1.1,0.4-1.5c0.1-0.1,0.4,0,0.3,0.2
			C20.1,46.1,20,46.6,19.5,47.1z"/>
		<path class="st13" d="M46.3,19c-0.1,0.7-0.2,1.2-0.8,1.5c-0.1,0.1-0.4,0-0.3-0.2C45.3,19.8,45.5,19.3,46.3,19z"/>
		<path class="st13" d="M25.8,121.2c0.1,0.4-0.2,0.6-0.6,0.6c-0.2,0-0.5,0-0.4-0.3c0.1-0.3,0.2-0.7,0.5-0.8
			C25.7,120.6,25.8,120.9,25.8,121.2z"/>
		<path class="st13" d="M33.2,84.2c0.3,0.2,0.7,0.4,0.3,0.8c-0.2,0.2-0.3,0.4-0.6,0.3c-0.6-0.2,0.1-0.7-0.2-1c0,0,0,0,0,0
			C32.9,84.6,33.1,84.5,33.2,84.2L33.2,84.2z"/>
		<path class="st13" d="M61.5,103.5c0.3,0.1,0.4,0.3,0.4,0.6c0,0.4-0.2,0.6-0.6,0.5c-0.2,0-0.5,0-0.5-0.3
			C61,103.8,61.2,103.6,61.5,103.5z"/>
		<path class="st13" d="M55.8,27.9c0.4-0.1,0.6,0,0.5,0.3c-0.1,0.3,0.1,0.8-0.3,0.9c-0.3,0.1-0.4-0.3-0.5-0.5
			C55.4,28.1,55.6,27.9,55.8,27.9z"/>
		<path class="st13" d="M63.7,39c-0.1,0.3-0.4,0.5-0.8,0.6c-0.2,0-0.4,0-0.4-0.3c0.1-0.4,0.4-0.6,0.7-0.6
			C63.5,38.7,63.7,38.8,63.7,39z"/>
		<path class="st13" d="M40.6,86.5c-0.3,0.6-0.6,1.1-0.9,1.7c-0.1-0.8,0.3-1.3,0.7-1.8C40.4,86.4,40.5,86.5,40.6,86.5z"/>
		<path class="st13" d="M54.2,103c0,0.4-0.2,0.6-0.6,0.6c-0.2,0-0.5-0.1-0.3-0.3c0.2-0.3,0.2-0.7,0.6-0.8
			C54.2,102.5,54.1,102.8,54.2,103z"/>
		<path class="st6" d="M155.9,77.8c-2.3,0.4-4.2-0.8-6.2-2c-0.6-0.4-0.3-0.8-0.3-1.2c0.5-2.5,1.8-4.5,3.7-6.1
			c3.1-2.6,6.7-4,10.7-4.4c2.2-0.2,4,1.9,4,4.5c0,5.1-2.9,8.3-8.1,9C158.4,77.7,157.2,77.9,155.9,77.8z"/>
		<path class="st12" d="M158.7,79.9c-1,0.7-1.4,1.4-1.8,2.2c-0.2,0.4-0.3,0.7-0.8,0.8c-0.8,0.1-1.1-0.1-1-0.9
			c0.1-1.1,0.5-2.1,0.8-3.1c0.2-0.5,0.7-0.6,0.9-0.1c0.4,0.7,0.5,0.2,1,0.1c2-0.5,3.9-1.8,6.1-1.4c1,0.2,1.6-0.3,1.7-0.9
			c0.4-1.8,1.8-2.4,3.1-3.2c0.1-0.1,0.2-0.2,0.4-0.3c0,0,0-0.1,0-0.2c-0.3,0-0.7-0.1-1.1-0.1c0.6-1.2,1.9-1.5,2.9-2.5
			c-0.7,0-1.3,0.1-1.4-0.5c-0.1-0.6,0-1.3,0.8-1.4c0.1,0,0.2-0.2,0.2-0.3c0.2-0.5,0.4-0.9,1.1-0.8c0.8,0.2,0.4,0.8,0.3,1.2
			c-0.1,0.7-0.2,1.4,0.9,0.9c0.2-0.1,0.6-0.1,0.5,0.3c-0.2,0.7-0.1,1.7-1.1,1.9c-0.3,0.1-0.6,0.3-0.9,0.5c-0.1,0.1-0.3,0.3-0.3,0.5
			c0,0.3,0.3,0.2,0.5,0.2c0.6,0,0.8,0.2,0.4,0.7c-0.3,0.4,0,0.6,0.1,0.9c0.1,0.3,0.4,0.6,0.1,0.8c-0.3,0.2-0.6-0.1-0.8-0.2
			c-0.5-0.4-0.9-1-1.7-1c-0.1,0-0.2,0-0.5,0.1c1.1,0.5,1,1.5,1.3,2.4c0.2,0.5,0.1,1-0.2,1.2c-0.4,0.3-0.7-0.4-1-0.6
			c-0.4-0.2-0.4-1-1-0.7c-0.4,0.2-0.1,0.8-0.1,1.3c0,0.7,0.2,1.4-0.2,2c-0.1,0.2-0.3,0.4-0.5,0.4c-0.3,0-0.3-0.3-0.4-0.5
			c-0.2-0.3,0-0.9-0.7-0.9c-0.7,0-0.5,0.6-0.6,1c-0.1,0.4-0.3,0.8-0.7,1c-0.2,0.1-0.3,0.2-0.5,0.3c-0.4,0.2,0.1,1-0.6,0.9
			c-0.7-0.1-0.3-0.8-0.5-1.3c-0.3-0.7-0.3-1.5-1.2-2c-0.2,1.1,0.2,2,0.2,3c0,0.5,0.1,1.1,0,1.6c-0.1,0.4-0.3,0.6-0.7,0.6
			c-0.5,0-0.5-0.4-0.5-0.7c-0.1-0.8-0.1-1.7-0.2-2.5c0-0.3,0-0.8-0.5-0.7c-0.4,0.1-0.7,0.3-0.6,0.7c0.1,1.3-1.5,1.4-1.5,2.6
			C157.9,82.4,158.3,81.3,158.7,79.9z"/>
		<path class="st12" d="M144.6,67.5c0.1-0.2,0.3-0.5,0.4-0.7c1.8-2.3,4-4.4,6.6-5.7c0.9-0.5,2-0.7,2.6-1.8c0-0.1,0.1-0.1,0.2-0.1
			c1.3-0.2,2.4-0.8,3.4-1.5c0.2-0.1,0.6-0.2,0.6,0c0.5,1.2,0.8,0.3,1.1-0.1c0.5-0.5,1-0.8,1.8-0.7c-0.1,0.3-0.2,0.6-0.3,0.8
			c-0.3,0.5,0.2,0.7,0.4,0.9c0.3,0.3,0.6-0.1,0.7-0.2c0.6-0.6,1-1.4,1.9-1.5c0.3,0,0.6-0.2,0.9,0.1c0,0.5-0.4,0.5-0.7,0.7
			c-0.7,0.5-1.3,1.2-1.3,2.1c0,1-0.6,1-1.3,1.1c-0.7,0.2-0.8-0.3-1-0.8c-0.6-1.3-0.9,0.4-1.2,0.2c-0.8-0.2,0-1.1-0.9-1.1
			c-0.7,0-0.9,0.4-1.1,0.9c-0.3,0.6-0.6,1.1-1,1.9c-0.2-0.7-0.6-1.1-0.2-1.7c0.2-0.2,0.3-0.5,0-0.7c-0.3-0.2-0.6,0-0.7,0.3
			c-0.1,0.2-0.2,0.4-0.3,0.6c-0.6,1.6-1.9,2.3-3.5,2.4c-0.5,0-0.5,0.3-0.6,0.6c-0.2,0.5-0.3,1.1-0.6,1.6c-0.4,0.6-0.7,1.5-1.6,0.3
			c-0.4-0.6-1.2-0.1-1.5,0.5c-0.9,1.7-2.3,3-2.5,5c0,0.1-0.1,0.3-0.3,0.3c-0.2,0.1-0.3-0.1-0.4-0.3c-0.3-0.5-0.5-1.1-0.3-1.7
			C144.1,68.8,144.4,68.2,144.6,67.5z"/>
		<path class="st12" d="M164.4,44c0.1-0.1,0.3-0.2,0.4-0.3c0.2-0.1,0.4-0.2,0.6-0.3c0.1-0.1,0.2-0.2,0.4-0.3c1.9-1.2,3-3,3.9-5
			c0.1-0.3,0.2-0.7,0.4-0.9c0.3-0.4,0.9-0.5,1.4-0.3c0.4,0.2,0,0.6-0.1,0.9c-0.1,0.3-0.2,0.6-0.3,0.9c-0.1,0.4-0.2,0.8,0.5,0.7
			c0.5-0.1,0.6,0.2,0.6,0.6c0,0.4-0.3,0.5-0.6,0.5c-0.3,0-0.5,0-0.8,0c-0.5,0-1.1-0.2-0.8,0.8c0.2,0.8-0.8,2-1.6,2.1
			c-0.1,0-0.1-0.1-0.2-0.1c-0.1,0.1-0.1,0.2,0,0.3c0.8,1.1,0.8,1.1,0.7,2.1c-0.5-0.1-0.3-0.5-0.5-0.8c-0.2-0.3-0.5-0.4-0.8-0.4
			c-0.4,0-0.2,0.3-0.2,0.5c0,0.1,0,0.1,0,0.2c-1.1-0.3-1.2,1.3-2.2,1c-0.7-0.2-1.1,0.1-1,0.9c0,0.3,0.2,0.8-0.3,0.9
			c-0.5,0.2-0.6-0.3-0.9-0.6c-0.4-0.5-0.8-1-1.5-1.1c-0.2,0-0.6,0.1-0.6-0.3c0-0.3,0.3-0.4,0.5-0.6C162.4,45.1,163.5,44.7,164.4,44z
			"/>
		<path class="st12" d="M163,108.7c-1.7,1.6-3.9,2.6-5.3,4.5c-1.4,1.9-3,3.6-5,4.8C152.4,114.9,159.4,108.6,163,108.7z"/>
		<path class="st13" d="M169.7,106.6c-0.5,0.3-1,0.6-1.5,0.9c-0.4,0.2-0.7,0-0.9-0.3c-0.2-0.3,0.2-0.6,0.4-0.7
			c0.4-0.2,0.9-0.5,1.4-0.6c1.8-0.4,3-1.6,3.7-3.3c0.6-1.4,0.8-2.8,1-4.2c0-0.3-0.1-0.7,0.4-0.7c0.4,0,0.6,0.3,0.6,0.7
			c0.1,0.9-0.1,1.7-0.3,2.5c-0.1,0.6-0.3,1.2-0.4,1.8c-0.1,1.7-1.4,2.5-2.5,3.4c-0.2,0.2-0.5,0.2-0.7,0.5c-0.2,0.3-0.2,0.9-0.7,0.8
			C169.7,107.4,170.1,106.9,169.7,106.6z"/>
		<path class="st12" d="M157.2,92.4c-0.8,0-1.2,0.4-1.3,1.2c-0.1,0.3-0.1,0.7-0.3,1c-0.4,0.4-0.9,0.4-1.4,0.2
			c-0.4-0.2-0.1-0.6,0-0.9c0.3-0.7,0.7-1.4,0.9-2.1c0.1-0.3,0.3-0.4,0.6-0.4c1.3,0,2.6,0,4,0c-0.6,0.8-1,1.6-1.2,2.6
			c-0.2,0.7-1,0.7-1.5,0.7c-0.4,0-0.3-0.3-0.3-0.6C156.8,93.5,157.2,93.1,157.2,92.4z"/>
		<path class="st12" d="M154.8,78.7c0.4,1.5-0.3,2.8-1.4,3c-0.7,0.1-1.2,0-1-1c0.1-0.4,0.2-0.8,0-1.2c-0.4-0.1-0.5,0.3-0.6,0.6
			c-0.2,0.3-0.4,0.7-0.7,1.1c-0.4,0.4-0.9,1-1.4,0.7c-0.5-0.3,0-1,0.2-1.4c0.3-0.7,0.8-1.5,1.2-2.4c0.2,0.7,0.2,1.1,0.8,0.6
			c0.3-0.2,0.7-0.1,1.1-0.2c0.6-0.1,0.9,0.1,0.6,0.7c-0.2,0.4-0.2,0.7,0.2,0.9c0.5,0.1,0.4-0.4,0.6-0.7
			C154.5,79.2,154.4,78.9,154.8,78.7z"/>
		<path class="st12" d="M165.8,90.7c-0.9,0.9-1.7,1.6-2.5,2.3c-0.2,0.2-0.6,1-0.8-0.1c-0.1-0.4-0.5-0.1-0.7,0
			c-0.5,0.3-0.9,0.7-1.4,1c-0.2,0.1-0.5,0.3-0.7,0.1c-0.2-0.2-0.2-0.5-0.1-0.7c0.3-1.4,1.8-2.6,3.2-2.7
			C163.7,90.7,164.6,90.7,165.8,90.7z"/>
		<path class="st13" d="M167.8,57.5c0,1-0.4,1.7-1.2,2.2c-0.4,0.3-0.7,0.7-1.1,1c-0.3,0.2-0.5,1-0.9,0.6c-0.5-0.4-0.6-1.2-0.2-1.7
			C165.3,58.6,166.4,57.8,167.8,57.5z"/>
		<path class="st14" d="M141,85.8c0-0.3,0-0.7,0.4-0.9c0.3-0.1,0.5,0.1,0.6,0.4c0.1,0.4,0.5,0.3,0.8,0.3c0.6-0.1,1,0.2,1.3,0.8
			c0.3,0.6-0.2,0.8-0.5,1.1c-0.4,0.3-0.6,0.9-1.2,0.7C141.9,88,141,86.3,141,85.8z"/>
		<path class="st12" d="M141,75.5c0-0.9,0.3-1.7,0.7-2.5c0.2-0.4,0.4-0.6,0.8-0.5c0.5,0,0.6,0.4,0.7,0.8c0.2,0.7-0.8,2.9-1.3,3.3
			c-0.2,0.1-0.4,0.2-0.5,0C141,76.3,141.1,75.9,141,75.5z"/>
		<path class="st13" d="M148.2,29.4c-0.6,1.2-1.7,1.7-2.9,1.4c-0.4-0.1-0.4-0.3-0.3-0.6c0.6-0.9,1.4-1.6,1.8-2.8
			c0.1-0.5,0.7,0.4,1.1,0.4c-0.2,0.7-1.2,0.5-1.1,1.1C147.1,29.6,147.7,29.2,148.2,29.4z"/>
		<path class="st12" d="M166.5,61.6c0.6-1.7,1.6-2.6,3-3.1c0.5-0.2,0.9,0.1,1.1,0.4c0.2,0.3-0.3,0.6-0.5,0.8
			C169.1,60.4,168,60.9,166.5,61.6z"/>
		<path class="st12" d="M159.3,22.8c0,0,0.4-0.2,0.3,0.3c-0.2,0.5-0.1,1.3-0.8,1.1c-0.9-0.3-1.4,0.2-2,0.7c-0.2,0.2-0.7,0.5-0.9,0.1
			c-0.2-0.4-0.3-0.9,0.2-1.2C157,23.1,158,22.8,159.3,22.8z"/>
		<path class="st13" d="M147.6,76.9c-0.2,0.5-0.4,0.9-0.8,1.2c-0.7,0.6-1.5,1.1-2,1.8c-0.1,0.2-0.3,0.3-0.5,0.2
			c-0.2-0.1-0.2-0.3-0.1-0.5c0.1-0.3,0.3-0.7,0.5-0.9c0.6-0.7,1.3-1.4,2-2.1c0.3-0.3,0.6-0.2,0.8-0.1
			C147.6,76.5,147.7,76.7,147.6,76.9z"/>
		<path class="st13" d="M154.1,91.4c0,0.8-2.1,2.6-2.9,2.6c-0.4,0-0.5-0.2-0.4-0.5c0.1-0.4,0.4-0.8,0.7-1.2c0.5-0.4,1.3-0.5,1.7-1.1
			C153.4,91.1,154,91,154.1,91.4z"/>
		<path class="st13" d="M168.7,63.4c1-1.1,2.1-2.1,3.4-2.8c0.3-0.2,0.7-0.5,1,0c0.2,0.5-0.2,0.6-0.5,0.8c-1.2,0.7-2.4,1.5-3.6,2.2
			C168.8,63.6,168.8,63.5,168.7,63.4z"/>
		<path class="st13" d="M170.6,29.2c-0.1,1.2,0.1,2.5-1.1,3.3C168.7,30.8,169,29.8,170.6,29.2z"/>
		<path class="st13" d="M170.7,36.2c-0.5,0.2-0.6,0-0.6-0.3c0.1-0.7,0.1-1.4,1.1-1.3c0.6,0,1.2-0.1,1.2,0.7
			C172.3,36.4,171.2,35.8,170.7,36.2z"/>
		<path class="st12" d="M172.7,31.9c-0.5,1.4-1.4,1.9-2.6,2c-0.2,0-0.6,0.1-0.7-0.3c-0.1-0.3,0.2-0.4,0.4-0.4
			C170.8,32.9,171.5,32.1,172.7,31.9z"/>
		<path class="st13" d="M150.1,90.7c0.1,0.6,0.1,1-0.2,1.1c-0.7,0.3-0.7,0.8-0.8,1.4c0,0.3-0.1,0.8-0.6,0.7
			c-0.5-0.1-0.5-0.5-0.4-0.9C148.4,91.9,149.1,91.3,150.1,90.7z"/>
		<path class="st13" d="M147.8,79.9c0.1-1.2,0.7-1.9,1.6-1.8c0.3,0.1,0.7,0.1,0.3,0.6c-0.4,0.5-0.8,1-1.2,1.5
			c-0.1,0.2-0.3,0.4-0.6,0.3C147.6,80.4,147.8,80.1,147.8,79.9z"/>
		<path class="st13" d="M148,90.1c-0.6,0.9-1,1.5-1.4,2.2c-0.2,0.3-0.3,0.6-0.7,0.4c-0.4-0.2-0.3-0.6-0.2-0.9
			C146.1,90.8,146.8,90.3,148,90.1z"/>
		<path class="st13" d="M139.2,77.9c-0.9-1-1.3-2.2-1.3-3.5c0-0.3,0.1-0.5,0.3-0.5c0.2-0.1,0.4,0.1,0.3,0.3
			c-0.2,1.2,0.7,2.1,0.8,3.3C139.3,77.6,139.4,77.7,139.2,77.9z"/>
		<path class="st13" d="M169.4,26c0.1,0,0.4,0,0.6,0.1c0.2,0.1,0.5,0.1,0.5,0.3c0.1,0.4-0.3,0.4-0.5,0.5c-0.5,0.2-0.9,0.4-1.4,0.6
			c-0.2,0.1-0.5,0.4-0.7,0.1c-0.2-0.2,0-0.5,0.1-0.7C168.3,26.1,168.5,25.9,169.4,26z"/>
		<path class="st13" d="M166.3,93.2c-0.2,0-0.7,0.1-0.6-0.4c0.2-0.7,0.6-1.2,1.3-1.2c0.4,0,0.8,0.1,0.8,0.6
			C167.8,92.8,167.1,93.2,166.3,93.2z"/>
		<path class="st13" d="M168.6,29.2c0.2-1,0.7-1.6,1.7-1.5c0.2,0,0.6,0,0.6,0.3c0,0.2-0.2,0.4-0.3,0.5C170,29,169.4,29.3,168.6,29.2
			z"/>
		<path class="st13" d="M143.8,90.6c-0.2-0.6-0.2-1.2-0.1-1.7c0.1-0.4,0.4-0.6,0.8-0.5c0.5,0.1,0.5,0.4,0.4,0.8
			C144.7,89.8,144.5,90.3,143.8,90.6z"/>
		<path class="st13" d="M166.5,127c0.3,0.1,0.9-0.3,0.9,0.4c0,0.6-0.4,0.9-0.9,0.8c-0.6-0.1-1.5-0.1-1.5-0.7
			C165.1,126.9,166,127.2,166.5,127z"/>
		<path class="st13" d="M143.4,77.1c0.2-0.8,0.7-1.4,1.3-2c0.2-0.2,0.5-0.8,0.9-0.3c0.3,0.3,0,0.6-0.2,0.9c-0.6,0.5-1.2,1.1-1.8,1.6
			C143.5,77.2,143.4,77.1,143.4,77.1z"/>
		<path class="st13" d="M171.2,65.6c1-1.2,2.1-1.2,3.3-1C173.5,64.9,172.4,65.2,171.2,65.6z"/>
		<path class="st13" d="M138.5,71.4c-0.1,0.3-0.1,0.7-0.4,1.1c-0.3,0.3-0.6,0.8-1,0.4c-0.4-0.4,0.1-0.6,0.4-0.8
			c0.2-0.2,0.3-0.6,0.5-0.9c0.1-0.2,0.3-0.3,0.5-0.2C138.5,71,138.5,71.1,138.5,71.4z"/>
		<path class="st13" d="M140.5,84.4c0.1-0.5,0.5-0.6,0.5-1.1c0-0.2-0.3-0.7,0.2-0.7c0.3,0,0.5,0.3,0.7,0.5c0.2,0.3,0.2,0.6-0.2,0.8
			C141.4,84.1,141.1,84.4,140.5,84.4z"/>
		<path class="st13" d="M162.4,22.7c0.3,0.1,0.8,0,0.7,0.4c-0.1,0.5-0.6,0.8-1.2,1c-0.3,0.1-0.5-0.2-0.5-0.5
			C161.6,23.1,161.8,22.7,162.4,22.7z"/>
		<path class="st12" d="M171.9,64.1c0.6-0.6,1.1-0.9,1.8-0.9c0.2,0,0.5,0,0.6,0.3c0.1,0.3-0.2,0.4-0.4,0.5
			C173.2,64.1,172.7,64.4,171.9,64.1z"/>
		<path class="st13" d="M165.9,107.1c0.3,0.1,0.8-0.1,0.7,0.4c-0.1,0.4-0.1,0.9-0.7,0.8c-0.4-0.1-0.6-0.4-0.6-0.8
			C165.2,106.9,165.7,107.2,165.9,107.1z"/>
		<path class="st13" d="M168.5,93.3c-0.3,0.1-0.5,0-0.5-0.3c0.1-0.5,0.5-0.7,1-0.8c0.2,0,0.3,0.1,0.3,0.4
			C169.3,93.1,169,93.3,168.5,93.3z"/>
		<path class="st13" d="M134.9,32.6c-0.1-0.1-0.2-0.1-0.3-0.2c0-0.2,0.1-0.3,0.1-0.5c0.7-0.4,0.9,0.4,1.4,0.5
			C135.9,33.5,135.4,32.7,134.9,32.6z"/>
		<path class="st13" d="M163.9,108.9c0-0.5-0.3-1.2,0.5-1.4c0.2-0.1,0.4-0.1,0.4,0.2C164.8,108.3,164.4,108.7,163.9,108.9z"/>
		<path class="st13" d="M147.1,69.6c0,0.7-0.2,1.1-0.9,1.3C146.1,70.1,146.4,69.8,147.1,69.6z"/>
		<path class="st13" d="M165,23.5c-0.1,0.2-0.1,0.2-0.1,0.3c-0.4,0.3-0.7,0.8-1.3,0.7c-0.1,0-0.1-0.2-0.1-0.3
			C163.8,23.6,164.3,23.5,165,23.5z"/>
		<path class="st13" d="M173.1,62.4c-0.4,0.6-0.9,0.7-1.5,0.7C171.9,62.4,172.4,62.4,173.1,62.4z"/>
		<path class="st13" d="M149.1,52.1c-0.1,0.6-0.4,0.9-0.9,0.9c-0.2,0-0.2-0.3-0.2-0.5C148.2,51.8,148.7,52.1,149.1,52.1z"/>
		<path class="st12" d="M148.1,32.5c0.1,0,0.2,0,0.3,0c0,0.1-0.1,0.1-0.1,0.2C148.2,32.7,148.2,32.6,148.1,32.5z"/>
		<path class="st13" d="M143.5,77.2c-0.1,0.1-0.2,0.1-0.3,0c0,0,0.1-0.1,0.1-0.1C143.4,77.1,143.5,77.2,143.5,77.2z"/>
		<path class="st8" d="M55.3,105.6c0.3,0.1,0.5,0.2,0.4,0.5C55.5,106,55.4,105.8,55.3,105.6z"/>
		<path class="st8" d="M55.7,106.1c0.2,0,0.3,0.1,0.2,0.2C55.9,106.2,55.8,106.2,55.7,106.1z"/>
		<path class="st8" d="M55,105.2c0.2,0,0.2,0.2,0.2,0.3C55.2,105.4,55.1,105.3,55,105.2z"/>
		<path class="st15" d="M100.1,173.4c1.8-2.5,4.1-4.3,6.9-5.3c3.8-1.4,7.7-1.2,11.6-0.9c5.3,0.4,10.4,1.8,15.6,2.9
			c4.9,1,9.8,1,14.8,0.5c3.1-0.3,6.2-0.5,9.3-0.8c0.7-0.1,0.9,0.1,0.9,0.8c0,6.1,0,12.1,0,18.2c0,0.9-0.5,0.8-1.1,0.8
			c-8.9,0-17.8,0-26.7,0c-6.3,0-12.5,0-18.8,0c-0.7,0-1.2-0.2-1.7-0.7c-2-1.9-4.6-2.8-7.3-3.1c-3.3-0.4-6.6-0.4-9.8,0.6
			c-1.8,0.5-3.4,1.4-4.8,2.7c-0.4,0.4-0.9,0.5-1.4,0.5c-15.2,0-30.4,0-45.6,0c-0.9,0-1.1-0.3-1.1-1.2c0-5.8,0-11.7,0-17.5
			c0-1.1,0.4-1.2,1.3-1.1c4.7,0.7,9.5,1,14.3,1.1c5.2,0.1,10.2-1,15.2-2.2c5.3-1.2,10.6-2.1,16.1-1.8c4.9,0.2,9,2,12,6.1
			C99.8,173.2,99.9,173.2,100.1,173.4z"/>
		<path class="st16" d="M158.9,168.3c-1.8,0.2-3.5,0.5-5.2,0.7c-5.4,0.6-10.7,1.1-16.2,0.4c-4.1-0.6-8.1-1.8-12.1-2.6
			c-5.3-1-10.7-1.8-16.1-0.9c-3,0.5-4,1-7.8,3.9c-0.2-2.8-0.3-5.6-0.5-8.4c0-0.7,0.1-1.5-0.1-2.2c-0.5-1.9,0.5-3,1.8-4
			c2.5-1.9,5.4-2.5,8.4-2.7c3.8-0.2,7.4,0.3,11,1.4c6.1,2,12.4,2.4,18.7,1.5c0.5-0.1,0.9,0,1.3,0.3c5.5,4.1,11,8.1,16.4,12.2
			C158.7,168,158.7,168.1,158.9,168.3z"/>
		<path class="st16" d="M41.1,168.1c4.2-3.1,8.3-6.1,12.4-9.1c1.5-1.1,2.9-2.6,4.7-3.3c1.7-0.7,3.7,0.2,5.6,0.3
			c4.5,0.2,8.9-0.3,13.1-1.7c4.9-1.5,9.9-2.3,15.1-1.3c2.5,0.5,4.8,1.6,6.6,3.5c0.3,0.3,0.6,0.6,0.6,1.1c-0.2,4-0.5,8.1-0.7,12.3
			c-3.6-3.9-8.1-4.5-12.9-4.5c-5.3,0-10.5,0.8-15.5,2.3c-7.8,2.2-15.7,2.3-23.7,1.2c-1.7-0.2-3.4-0.5-5.1-0.7
			C41.3,168.4,41.3,168.3,41.1,168.1z"/>
		<path class="st8" d="M36.6,79.8c0.2-0.5,0.4-1,0.6-1.5c0.1,0.7,0,1.3-0.5,1.7C36.7,80,36.6,79.9,36.6,79.8z"/>
		<path class="st8" d="M40.8,71.3c-0.1,0.4-0.4,0.4-0.7,0.5C40,71.3,40.5,71.5,40.8,71.3z"/>
		<path class="st8" d="M30.7,86.2c-0.1,0.1-0.3,0.2-0.5,0.1c0.1-0.1,0.2-0.2,0.3-0.3C30.6,86,30.6,86.1,30.7,86.2z"/>
		<path class="st8" d="M33.2,84.2c-0.1,0.3-0.2,0.4-0.5,0.2C32.8,84.3,32.9,84.1,33.2,84.2z"/>
		<path class="st8" d="M31.2,85.7c-0.1,0.1-0.2,0.1-0.3,0.2c-0.1-0.1-0.1-0.1-0.2-0.2c0.1-0.1,0.2-0.1,0.3-0.2
			C31.1,85.6,31.1,85.7,31.2,85.7z"/>
		<path class="st8" d="M36.7,80c-0.1,0-0.2,0.1-0.3,0.1c-0.1-0.1,0-0.2,0.1-0.3C36.6,79.9,36.7,80,36.7,80z"/>
		<path class="st8" d="M30.9,85.9c-0.1,0.1-0.2,0.2-0.2,0.2c-0.1-0.1-0.1-0.1-0.2-0.2c0.1-0.1,0.2-0.1,0.2-0.2
			C30.8,85.8,30.9,85.9,30.9,85.9z"/>
		<path class="st8" d="M24.7,32.1c-0.1,0.1-0.1,0.2-0.2,0.3c0,0-0.1-0.1-0.1-0.1c0.1-0.1,0.1-0.2,0.2-0.2C24.6,32,24.7,32,24.7,32.1
			z"/>
		<path class="st8" d="M25,31.9c-0.1,0.1-0.2,0.1-0.3,0.2c0,0-0.1-0.1-0.1-0.1c0.1-0.1,0.1-0.2,0.2-0.2C24.9,31.8,25,31.8,25,31.9z"
			/>
		<path class="st8" d="M24.8,31.7c0.1-0.1,0.2-0.2,0.2-0.2c0.2,0.1,0.1,0.2,0,0.3C25,31.8,24.9,31.8,24.8,31.7z"/>
		<path class="st8" d="M32.5,51.7c-0.1,0-0.1,0-0.1,0.1c0-0.1,0-0.1,0-0.2c0,0,0.1,0,0.1-0.1C32.4,51.6,32.4,51.7,32.5,51.7z"/>
		<path class="st8" d="M27.5,126c-0.1,0-0.2,0-0.3,0.1c0-0.1,0.1-0.2,0.1-0.3C27.4,125.9,27.4,125.9,27.5,126z"/>
		<path class="st8" d="M59.2,73.3c0.4-0.2,0.7-0.1,1,0.1C59.8,73.6,59.5,73.6,59.2,73.3z"/>
		<path class="st8" d="M58.4,53.7c0.1,0,0.2,0,0.3,0c0,0.1-0.1,0.1-0.1,0.2C58.5,53.9,58.4,53.8,58.4,53.7z"/>
		<path class="st9" d="M168.2,43.6c-0.1-0.1-0.1-0.2,0-0.3c0,0,0.1,0.1,0.2,0.1C168.3,43.5,168.2,43.5,168.2,43.6z"/>
	</g>
</g>
</svg>
